<svg width="145" height="9" viewBox="0 0 145 9" fill="none" xmlns="http://www.w3.org/2000/svg">
<path fill-rule="evenodd" clip-rule="evenodd" d="M0.758599 0.406167C0.676067 0.619635 0.646247 2.5969 0.692935 4.80015C0.767334 8.33967 0.838722 8.81788 1.3044 8.90643C1.74959 8.9908 1.83152 8.77495 1.83152 7.51829C1.83152 4.93312 1.42036 5.08696 8.32538 5.08696H14.4539L14.5433 6.95033C14.6222 8.58533 14.7069 8.81371 15.2355 8.81371C15.8102 8.81371 15.8379 8.61485 15.8379 4.49068C15.8379 0.366514 15.8102 0.167655 15.2355 0.167655C14.7066 0.167655 14.6222 0.39603 14.5433 2.03699L14.4536 3.90633L8.21785 3.82583L1.98213 3.74533L1.89237 1.88196C1.82459 0.473248 1.69357 0.0185852 1.35591 0.0185852C1.11012 0.0185852 0.841433 0.192997 0.758599 0.406167ZM49.122 0.599958C49.122 1.15003 49.3603 1.19743 52.5107 1.27584L55.8993 1.36021L55.9837 5.1615C56.062 8.69624 56.109 8.96278 56.6523 8.96278C57.1957 8.96278 57.2427 8.69624 57.321 5.1615L57.4054 1.36021L60.8142 1.27584C63.8474 1.20041 64.2119 1.13482 64.1236 0.679561C64.0333 0.214761 63.3369 0.160202 56.5731 0.0880523C49.3148 0.0102378 49.122 0.0233557 49.122 0.599958ZM16.8922 3.90782C16.8922 7.34537 16.9244 7.53111 17.6488 8.24814L18.4052 8.99677L24.5665 8.90524C29.9998 8.82444 30.7914 8.7508 31.2652 8.28213C31.7104 7.84148 31.8194 7.1161 31.9023 4.03363C31.9989 0.435384 31.9821 0.316725 31.3751 0.316725C30.7781 0.316725 30.748 0.472951 30.748 3.57509C30.748 6.13939 30.6471 6.93304 30.2748 7.30184C29.879 7.6933 28.9007 7.77022 24.3108 7.77022C20.4417 7.77022 18.7133 7.66468 18.4585 7.41245C18.2199 7.17632 18.097 5.90863 18.097 3.6857C18.097 0.515584 18.0615 0.316725 17.4946 0.316725C16.9256 0.316725 16.8922 0.515584 16.8922 3.90782ZM33.4589 0.555237C33.4589 1.37363 34.3665 1.50928 39.8389 1.50928H45.496L45.6861 2.25851C46.0761 3.79691 45.6779 3.8944 38.9946 3.8944H32.8565V6.42859V8.96278H39.3476C47.2328 8.96278 47.9172 8.75169 47.9172 6.32156C47.9172 5.87942 47.6882 5.19429 47.4081 4.79866C47.0816 4.33684 46.9274 3.62697 46.978 2.81573C47.037 1.86467 46.9021 1.39897 46.4325 0.934172C45.8421 0.349818 45.4776 0.316725 39.6338 0.316725C36.2376 0.316725 33.4589 0.424055 33.4589 0.555237ZM65.3875 0.578491C65.3875 1.40613 66.3939 1.51853 73.1022 1.44041C79.3837 1.36737 79.9973 1.3143 80.0898 0.83847C80.184 0.353098 79.6765 0.316725 72.7892 0.316725C68.7183 0.316725 65.3875 0.43449 65.3875 0.578491ZM81.0506 4.63975C81.0506 8.76392 81.0783 8.96278 81.6531 8.96278C82.2193 8.96278 82.2555 8.76392 82.2555 5.66326C82.2555 2.37806 82.2585 2.36435 82.9332 2.57275C83.3061 2.68783 86.1185 4.02051 89.1834 5.53417C92.2482 7.04783 95.0607 8.38051 95.4336 8.49559L96.1113 8.70489V4.51066C96.1113 0.515585 96.0827 0.316725 95.5089 0.316725C94.9447 0.316725 94.9064 0.515584 94.9064 3.44719C94.9064 5.75509 94.8076 6.57647 94.5299 6.57349C94.323 6.5711 91.256 5.16239 87.715 3.44302C84.1739 1.72365 81.2256 0.316725 81.1636 0.316725C81.1015 0.316725 81.0506 2.26209 81.0506 4.63975ZM98.1403 0.6894C97.4869 1.18044 96.9839 2.56231 97.2189 3.2209C97.3219 3.5095 97.6803 4.04735 98.0159 4.41615C98.6065 5.0655 98.8023 5.08696 104.166 5.08696C107.408 5.08696 109.947 5.21486 110.288 5.39554C110.619 5.57084 110.871 6.01746 110.871 6.42859C110.871 6.83972 110.619 7.28634 110.288 7.46164C109.945 7.64321 107.36 7.77022 104.009 7.77022C98.6451 7.77022 98.2806 7.806 97.7532 8.3829L97.1929 8.99528L104.024 8.90464C110.626 8.81669 110.878 8.79135 111.526 8.14945C112.427 7.25593 112.428 5.60125 111.526 4.70773C110.888 4.07597 110.588 4.0396 105.366 3.96536C98.5065 3.86787 98.4568 3.85803 98.5779 2.61717L98.6716 1.65835L104.823 1.57756C110.683 1.50034 111.774 1.34352 111.774 0.578491C111.774 0.144102 98.7243 0.250538 98.1403 0.6894ZM113.905 1.10232C113.375 1.76837 113.28 2.30711 113.28 4.64691C113.28 8.9431 113.021 8.79284 120.629 8.90524L126.828 8.99677L127.584 8.24814C128.29 7.54959 128.341 7.30154 128.341 4.55627C128.341 0.183159 128.581 0.316725 120.738 0.316725H114.529L113.905 1.10232ZM130.299 0.913004C130.809 1.47112 131.227 1.50928 136.811 1.50928C142.47 1.50928 142.795 1.53999 143.101 2.10556C143.329 2.52922 143.329 2.87447 143.101 3.29812C142.793 3.86667 142.47 3.8944 136.162 3.8944H129.546V6.42859C129.546 8.76392 129.593 8.96278 130.148 8.96278C130.689 8.96278 130.751 8.76392 130.751 7.02487V5.08696H136.607C142.318 5.08696 142.476 5.10336 142.933 5.74973C143.191 6.11405 143.402 6.98611 143.402 7.68763C143.402 8.76392 143.496 8.96278 144.004 8.96278C144.514 8.96278 144.607 8.76392 144.607 7.66557C144.607 6.95212 144.456 5.94173 144.273 5.42028C144.021 4.70653 144.03 4.25366 144.309 3.58702C144.744 2.5486 144.288 1.08444 143.38 0.603536C143.081 0.445224 139.909 0.316725 136.296 0.316725C129.773 0.316725 129.755 0.318514 130.299 0.913004ZM114.847 1.86705C114.361 2.34795 114.361 6.93155 114.847 7.41245C115.102 7.66527 116.866 7.77022 120.86 7.77022C126.14 7.77022 126.533 7.73236 126.825 7.19362C127.261 6.38625 127.223 2.31068 126.775 1.86705C126.265 1.3626 115.356 1.3626 114.847 1.86705ZM64.9134 4.29152C64.8267 4.51543 64.796 5.6248 64.8456 6.75625L64.9357 8.81371H72.466C78.959 8.81371 79.9964 8.75199 79.9964 8.3665C79.9964 7.98428 78.9982 7.90766 73.1438 7.83909L66.2912 7.75889V6.42292V5.08696H73.2411C79.6979 5.08696 80.184 5.04999 80.0898 4.56522C79.997 4.0876 79.3566 4.03661 72.5299 3.96357C66.446 3.89858 65.0423 3.9591 64.9134 4.29152ZM34.18 5.50913C34.09 5.74108 34.0604 6.31142 34.1141 6.77622L34.212 7.62115L39.8669 7.70224C43.4252 7.75323 45.7427 7.66647 46.1171 7.4682C46.887 7.06035 46.8948 5.80071 46.1298 5.39554C45.7879 5.21456 43.2306 5.08696 39.9452 5.08696C35.3924 5.08696 34.3132 5.16597 34.18 5.50913Z" fill="url(#paint0_linear_132_30)"/>
<defs>
<linearGradient id="paint0_linear_132_30" x1="-42.8599" y1="4.50768" x2="144.607" y2="4.50771" gradientUnits="userSpaceOnUse">
<stop stop-color="#57576F"/>
<stop offset="0.489536" stop-color="#F8F8FF"/>
<stop offset="1" stop-color="#5A5C6B"/>
</linearGradient>
</defs>
</svg>
