<svg xmlns="http://www.w3.org/2000/svg" xmlns:xlink="http://www.w3.org/1999/xlink" width="155" zoomAndPan="magnify" viewBox="0 0 116.25 30.000001" height="40" preserveAspectRatio="xMidYMid meet" version="1.0"><defs><g/><clipPath id="6e3f0acd08"><path d="M 8 4.414062 L 25 4.414062 L 25 12 L 8 12 Z M 8 4.414062 " clip-rule="nonzero"/></clipPath><clipPath id="8964cfb576"><path d="M 17 6 L 31.074219 6 L 31.074219 24.738281 L 17 24.738281 Z M 17 6 " clip-rule="nonzero"/></clipPath><clipPath id="636edf68a7"><path d="M 8 20 L 19 20 L 19 24.738281 L 8 24.738281 Z M 8 20 " clip-rule="nonzero"/></clipPath><clipPath id="5b63665b2b"><path d="M 5.671875 10 L 19 10 L 19 24 L 5.671875 24 Z M 5.671875 10 " clip-rule="nonzero"/></clipPath></defs><g fill="#FFF" fill-opacity="1"><g transform="translate(32.374937, 12.342587)"><g><path d="M 2.34375 -2.609375 L 4.203125 -2.609375 L 4.203125 -0.203125 C 3.953125 -0.117188 3.695312 -0.0507812 3.4375 0 C 3.175781 0.0390625 2.878906 0.0625 2.546875 0.0625 C 2.078125 0.0625 1.679688 -0.0234375 1.359375 -0.203125 C 1.035156 -0.390625 0.789062 -0.660156 0.625 -1.015625 C 0.457031 -1.367188 0.375 -1.804688 0.375 -2.328125 C 0.375 -2.816406 0.46875 -3.238281 0.65625 -3.59375 C 0.84375 -3.945312 1.117188 -4.222656 1.484375 -4.421875 C 1.847656 -4.617188 2.289062 -4.71875 2.8125 -4.71875 C 3.050781 -4.71875 3.289062 -4.691406 3.53125 -4.640625 C 3.769531 -4.585938 3.988281 -4.519531 4.1875 -4.4375 L 3.859375 -3.640625 C 3.722656 -3.710938 3.5625 -3.769531 3.375 -3.8125 C 3.195312 -3.863281 3.003906 -3.890625 2.796875 -3.890625 C 2.515625 -3.890625 2.265625 -3.820312 2.046875 -3.6875 C 1.835938 -3.5625 1.675781 -3.378906 1.5625 -3.140625 C 1.445312 -2.910156 1.390625 -2.632812 1.390625 -2.3125 C 1.390625 -2.007812 1.429688 -1.738281 1.515625 -1.5 C 1.597656 -1.269531 1.726562 -1.085938 1.90625 -0.953125 C 2.082031 -0.816406 2.316406 -0.75 2.609375 -0.75 C 2.742188 -0.75 2.859375 -0.753906 2.953125 -0.765625 C 3.054688 -0.785156 3.148438 -0.804688 3.234375 -0.828125 L 3.234375 -1.796875 L 2.34375 -1.796875 Z M 2.34375 -2.609375 "/></g></g><g transform="translate(37.096664, 12.342587)"><g><path d="M 3.734375 -1.78125 C 3.734375 -1.488281 3.691406 -1.226562 3.609375 -1 C 3.535156 -0.769531 3.421875 -0.570312 3.265625 -0.40625 C 3.117188 -0.25 2.9375 -0.128906 2.71875 -0.046875 C 2.507812 0.0234375 2.269531 0.0625 2 0.0625 C 1.75 0.0625 1.519531 0.0234375 1.3125 -0.046875 C 1.101562 -0.128906 0.921875 -0.25 0.765625 -0.40625 C 0.617188 -0.570312 0.503906 -0.769531 0.421875 -1 C 0.335938 -1.226562 0.296875 -1.488281 0.296875 -1.78125 C 0.296875 -2.175781 0.363281 -2.507812 0.5 -2.78125 C 0.644531 -3.0625 0.84375 -3.269531 1.09375 -3.40625 C 1.351562 -3.550781 1.664062 -3.625 2.03125 -3.625 C 2.363281 -3.625 2.65625 -3.550781 2.90625 -3.40625 C 3.164062 -3.269531 3.367188 -3.0625 3.515625 -2.78125 C 3.660156 -2.507812 3.734375 -2.175781 3.734375 -1.78125 Z M 1.28125 -1.78125 C 1.28125 -1.550781 1.304688 -1.351562 1.359375 -1.1875 C 1.410156 -1.03125 1.488281 -0.910156 1.59375 -0.828125 C 1.707031 -0.753906 1.847656 -0.71875 2.015625 -0.71875 C 2.191406 -0.71875 2.332031 -0.753906 2.4375 -0.828125 C 2.539062 -0.910156 2.617188 -1.03125 2.671875 -1.1875 C 2.722656 -1.351562 2.75 -1.550781 2.75 -1.78125 C 2.75 -2.019531 2.722656 -2.21875 2.671875 -2.375 C 2.617188 -2.53125 2.539062 -2.644531 2.4375 -2.71875 C 2.332031 -2.800781 2.191406 -2.84375 2.015625 -2.84375 C 1.753906 -2.84375 1.566406 -2.753906 1.453125 -2.578125 C 1.335938 -2.398438 1.28125 -2.132812 1.28125 -1.78125 Z M 1.28125 -1.78125 "/></g></g><g transform="translate(41.133852, 12.342587)"><g><path d="M 3.734375 -1.78125 C 3.734375 -1.488281 3.691406 -1.226562 3.609375 -1 C 3.535156 -0.769531 3.421875 -0.570312 3.265625 -0.40625 C 3.117188 -0.25 2.9375 -0.128906 2.71875 -0.046875 C 2.507812 0.0234375 2.269531 0.0625 2 0.0625 C 1.75 0.0625 1.519531 0.0234375 1.3125 -0.046875 C 1.101562 -0.128906 0.921875 -0.25 0.765625 -0.40625 C 0.617188 -0.570312 0.503906 -0.769531 0.421875 -1 C 0.335938 -1.226562 0.296875 -1.488281 0.296875 -1.78125 C 0.296875 -2.175781 0.363281 -2.507812 0.5 -2.78125 C 0.644531 -3.0625 0.84375 -3.269531 1.09375 -3.40625 C 1.351562 -3.550781 1.664062 -3.625 2.03125 -3.625 C 2.363281 -3.625 2.65625 -3.550781 2.90625 -3.40625 C 3.164062 -3.269531 3.367188 -3.0625 3.515625 -2.78125 C 3.660156 -2.507812 3.734375 -2.175781 3.734375 -1.78125 Z M 1.28125 -1.78125 C 1.28125 -1.550781 1.304688 -1.351562 1.359375 -1.1875 C 1.410156 -1.03125 1.488281 -0.910156 1.59375 -0.828125 C 1.707031 -0.753906 1.847656 -0.71875 2.015625 -0.71875 C 2.191406 -0.71875 2.332031 -0.753906 2.4375 -0.828125 C 2.539062 -0.910156 2.617188 -1.03125 2.671875 -1.1875 C 2.722656 -1.351562 2.75 -1.550781 2.75 -1.78125 C 2.75 -2.019531 2.722656 -2.21875 2.671875 -2.375 C 2.617188 -2.53125 2.539062 -2.644531 2.4375 -2.71875 C 2.332031 -2.800781 2.191406 -2.84375 2.015625 -2.84375 C 1.753906 -2.84375 1.566406 -2.753906 1.453125 -2.578125 C 1.335938 -2.398438 1.28125 -2.132812 1.28125 -1.78125 Z M 1.28125 -1.78125 "/></g></g><g transform="translate(45.171041, 12.342587)"><g><path d="M 1.546875 1.5625 C 1.054688 1.5625 0.675781 1.472656 0.40625 1.296875 C 0.144531 1.128906 0.015625 0.890625 0.015625 0.578125 C 0.015625 0.359375 0.0820312 0.175781 0.21875 0.03125 C 0.351562 -0.101562 0.550781 -0.203125 0.8125 -0.265625 C 0.707031 -0.304688 0.617188 -0.375 0.546875 -0.46875 C 0.472656 -0.570312 0.4375 -0.675781 0.4375 -0.78125 C 0.4375 -0.914062 0.472656 -1.023438 0.546875 -1.109375 C 0.628906 -1.203125 0.742188 -1.296875 0.890625 -1.390625 C 0.703125 -1.472656 0.550781 -1.601562 0.4375 -1.78125 C 0.332031 -1.957031 0.28125 -2.164062 0.28125 -2.40625 C 0.28125 -2.664062 0.335938 -2.882812 0.453125 -3.0625 C 0.566406 -3.25 0.734375 -3.390625 0.953125 -3.484375 C 1.171875 -3.578125 1.4375 -3.625 1.75 -3.625 C 1.8125 -3.625 1.882812 -3.617188 1.96875 -3.609375 C 2.0625 -3.597656 2.144531 -3.585938 2.21875 -3.578125 C 2.289062 -3.566406 2.335938 -3.5625 2.359375 -3.5625 L 3.609375 -3.5625 L 3.609375 -3.0625 L 3.046875 -2.921875 C 3.097656 -2.835938 3.132812 -2.75 3.15625 -2.65625 C 3.1875 -2.570312 3.203125 -2.484375 3.203125 -2.390625 C 3.203125 -2.003906 3.066406 -1.703125 2.796875 -1.484375 C 2.535156 -1.273438 2.164062 -1.171875 1.6875 -1.171875 C 1.582031 -1.179688 1.476562 -1.191406 1.375 -1.203125 C 1.320312 -1.160156 1.28125 -1.117188 1.25 -1.078125 C 1.226562 -1.035156 1.21875 -0.988281 1.21875 -0.9375 C 1.21875 -0.894531 1.238281 -0.859375 1.28125 -0.828125 C 1.320312 -0.796875 1.378906 -0.769531 1.453125 -0.75 C 1.535156 -0.738281 1.640625 -0.734375 1.765625 -0.734375 L 2.359375 -0.734375 C 2.753906 -0.734375 3.050781 -0.648438 3.25 -0.484375 C 3.457031 -0.316406 3.5625 -0.0703125 3.5625 0.25 C 3.5625 0.664062 3.382812 0.988281 3.03125 1.21875 C 2.6875 1.445312 2.191406 1.5625 1.546875 1.5625 Z M 1.59375 0.9375 C 1.820312 0.9375 2.019531 0.910156 2.1875 0.859375 C 2.351562 0.816406 2.476562 0.753906 2.5625 0.671875 C 2.65625 0.597656 2.703125 0.503906 2.703125 0.390625 C 2.703125 0.304688 2.675781 0.238281 2.625 0.1875 C 2.570312 0.132812 2.492188 0.0976562 2.390625 0.078125 C 2.285156 0.0546875 2.148438 0.046875 1.984375 0.046875 L 1.484375 0.046875 C 1.367188 0.046875 1.265625 0.0625 1.171875 0.09375 C 1.078125 0.132812 1 0.1875 0.9375 0.25 C 0.882812 0.320312 0.859375 0.40625 0.859375 0.5 C 0.859375 0.632812 0.921875 0.738281 1.046875 0.8125 C 1.179688 0.894531 1.363281 0.9375 1.59375 0.9375 Z M 1.75 -1.765625 C 1.925781 -1.765625 2.054688 -1.820312 2.140625 -1.9375 C 2.234375 -2.050781 2.28125 -2.203125 2.28125 -2.390625 C 2.28125 -2.609375 2.234375 -2.769531 2.140625 -2.875 C 2.054688 -2.976562 1.925781 -3.03125 1.75 -3.03125 C 1.570312 -3.03125 1.4375 -2.976562 1.34375 -2.875 C 1.257812 -2.769531 1.21875 -2.609375 1.21875 -2.390625 C 1.21875 -2.203125 1.257812 -2.050781 1.34375 -1.9375 C 1.425781 -1.820312 1.5625 -1.765625 1.75 -1.765625 Z M 1.75 -1.765625 "/></g></g><g transform="translate(48.854816, 12.342587)"><g><path d="M 1.484375 0 L 0.515625 0 L 0.515625 -4.953125 L 1.484375 -4.953125 Z M 1.484375 0 "/></g></g><g transform="translate(50.844754, 12.342587)"><g><path d="M 1.96875 -3.625 C 2.300781 -3.625 2.585938 -3.5625 2.828125 -3.4375 C 3.066406 -3.3125 3.25 -3.128906 3.375 -2.890625 C 3.5 -2.648438 3.5625 -2.351562 3.5625 -2 L 3.5625 -1.53125 L 1.28125 -1.53125 C 1.289062 -1.257812 1.367188 -1.046875 1.515625 -0.890625 C 1.671875 -0.734375 1.882812 -0.65625 2.15625 -0.65625 C 2.382812 -0.65625 2.59375 -0.675781 2.78125 -0.71875 C 2.96875 -0.769531 3.164062 -0.84375 3.375 -0.9375 L 3.375 -0.1875 C 3.195312 -0.101562 3.007812 -0.0390625 2.8125 0 C 2.625 0.0390625 2.394531 0.0625 2.125 0.0625 C 1.757812 0.0625 1.441406 0 1.171875 -0.125 C 0.898438 -0.257812 0.6875 -0.460938 0.53125 -0.734375 C 0.375 -1.003906 0.296875 -1.34375 0.296875 -1.75 C 0.296875 -2.164062 0.363281 -2.507812 0.5 -2.78125 C 0.644531 -3.0625 0.84375 -3.269531 1.09375 -3.40625 C 1.34375 -3.550781 1.632812 -3.625 1.96875 -3.625 Z M 1.984375 -2.9375 C 1.796875 -2.9375 1.640625 -2.875 1.515625 -2.75 C 1.390625 -2.632812 1.316406 -2.445312 1.296875 -2.1875 L 2.65625 -2.1875 C 2.65625 -2.332031 2.628906 -2.457031 2.578125 -2.5625 C 2.523438 -2.675781 2.453125 -2.765625 2.359375 -2.828125 C 2.265625 -2.898438 2.140625 -2.9375 1.984375 -2.9375 Z M 1.984375 -2.9375 "/></g></g></g><g fill="#FFF" fill-opacity="1"><g transform="translate(54.704705, 12.342587)"><g/></g><g transform="translate(56.398541, 12.342587)"><g><path d="M 2.625 -4.234375 C 2.363281 -4.234375 2.128906 -4.191406 1.921875 -4.109375 C 1.722656 -4.023438 1.550781 -3.898438 1.40625 -3.734375 C 1.269531 -3.566406 1.160156 -3.363281 1.078125 -3.125 C 1.003906 -2.882812 0.96875 -2.617188 0.96875 -2.328125 C 0.96875 -1.941406 1.023438 -1.601562 1.140625 -1.3125 C 1.265625 -1.019531 1.445312 -0.796875 1.6875 -0.640625 C 1.9375 -0.484375 2.242188 -0.40625 2.609375 -0.40625 C 2.816406 -0.40625 3.007812 -0.421875 3.1875 -0.453125 C 3.375 -0.492188 3.554688 -0.539062 3.734375 -0.59375 L 3.734375 -0.125 C 3.566406 -0.0625 3.390625 -0.015625 3.203125 0.015625 C 3.015625 0.046875 2.789062 0.0625 2.53125 0.0625 C 2.0625 0.0625 1.664062 -0.0351562 1.34375 -0.234375 C 1.03125 -0.429688 0.789062 -0.707031 0.625 -1.0625 C 0.46875 -1.414062 0.390625 -1.835938 0.390625 -2.328125 C 0.390625 -2.679688 0.4375 -3.003906 0.53125 -3.296875 C 0.632812 -3.585938 0.78125 -3.835938 0.96875 -4.046875 C 1.164062 -4.265625 1.398438 -4.429688 1.671875 -4.546875 C 1.953125 -4.660156 2.269531 -4.71875 2.625 -4.71875 C 2.863281 -4.71875 3.09375 -4.691406 3.3125 -4.640625 C 3.53125 -4.597656 3.726562 -4.535156 3.90625 -4.453125 L 3.6875 -3.984375 C 3.539062 -4.054688 3.378906 -4.113281 3.203125 -4.15625 C 3.023438 -4.207031 2.832031 -4.234375 2.625 -4.234375 Z M 2.625 -4.234375 "/></g></g><g transform="translate(60.505775, 12.342587)"><g><path d="M 1.09375 0 L 0.5625 0 L 0.5625 -4.953125 L 1.09375 -4.953125 Z M 1.09375 0 "/></g></g><g transform="translate(62.151853, 12.342587)"><g><path d="M 3.5625 -1.75 C 3.5625 -1.457031 3.523438 -1.195312 3.453125 -0.96875 C 3.378906 -0.75 3.269531 -0.5625 3.125 -0.40625 C 2.988281 -0.257812 2.820312 -0.144531 2.625 -0.0625 C 2.425781 0.0195312 2.203125 0.0625 1.953125 0.0625 C 1.710938 0.0625 1.492188 0.0195312 1.296875 -0.0625 C 1.109375 -0.144531 0.941406 -0.257812 0.796875 -0.40625 C 0.660156 -0.5625 0.550781 -0.75 0.46875 -0.96875 C 0.394531 -1.195312 0.359375 -1.457031 0.359375 -1.75 C 0.359375 -2.132812 0.421875 -2.457031 0.546875 -2.71875 C 0.679688 -2.988281 0.867188 -3.191406 1.109375 -3.328125 C 1.347656 -3.472656 1.632812 -3.546875 1.96875 -3.546875 C 2.289062 -3.546875 2.570312 -3.472656 2.8125 -3.328125 C 3.050781 -3.191406 3.234375 -2.988281 3.359375 -2.71875 C 3.492188 -2.445312 3.5625 -2.125 3.5625 -1.75 Z M 0.90625 -1.75 C 0.90625 -1.46875 0.941406 -1.222656 1.015625 -1.015625 C 1.085938 -0.816406 1.203125 -0.660156 1.359375 -0.546875 C 1.515625 -0.429688 1.71875 -0.375 1.96875 -0.375 C 2.207031 -0.375 2.40625 -0.429688 2.5625 -0.546875 C 2.71875 -0.660156 2.832031 -0.816406 2.90625 -1.015625 C 2.976562 -1.222656 3.015625 -1.46875 3.015625 -1.75 C 3.015625 -2.03125 2.976562 -2.269531 2.90625 -2.46875 C 2.832031 -2.675781 2.71875 -2.832031 2.5625 -2.9375 C 2.40625 -3.050781 2.203125 -3.109375 1.953125 -3.109375 C 1.597656 -3.109375 1.332031 -2.988281 1.15625 -2.75 C 0.988281 -2.507812 0.90625 -2.175781 0.90625 -1.75 Z M 0.90625 -1.75 "/></g></g><g transform="translate(66.07442, 12.342587)"><g><path d="M 3.4375 -3.484375 L 3.4375 0 L 3 0 L 2.921875 -0.484375 L 2.890625 -0.484375 C 2.828125 -0.367188 2.738281 -0.269531 2.625 -0.1875 C 2.507812 -0.101562 2.378906 -0.0390625 2.234375 0 C 2.085938 0.0390625 1.9375 0.0625 1.78125 0.0625 C 1.5 0.0625 1.265625 0.0195312 1.078125 -0.0625 C 0.890625 -0.15625 0.75 -0.296875 0.65625 -0.484375 C 0.5625 -0.671875 0.515625 -0.910156 0.515625 -1.203125 L 0.515625 -3.484375 L 1.046875 -3.484375 L 1.046875 -1.234375 C 1.046875 -0.953125 1.113281 -0.738281 1.25 -0.59375 C 1.382812 -0.445312 1.585938 -0.375 1.859375 -0.375 C 2.109375 -0.375 2.3125 -0.421875 2.46875 -0.515625 C 2.625 -0.617188 2.734375 -0.765625 2.796875 -0.953125 C 2.867188 -1.140625 2.90625 -1.375 2.90625 -1.65625 L 2.90625 -3.484375 Z M 3.4375 -3.484375 "/></g></g><g transform="translate(70.073402, 12.342587)"><g><path d="M 1.796875 0.0625 C 1.359375 0.0625 1.007812 -0.0859375 0.75 -0.390625 C 0.488281 -0.691406 0.359375 -1.140625 0.359375 -1.734375 C 0.359375 -2.328125 0.488281 -2.773438 0.75 -3.078125 C 1.019531 -3.390625 1.375 -3.546875 1.8125 -3.546875 C 1.988281 -3.546875 2.144531 -3.519531 2.28125 -3.46875 C 2.425781 -3.425781 2.546875 -3.363281 2.640625 -3.28125 C 2.742188 -3.195312 2.828125 -3.101562 2.890625 -3 L 2.9375 -3 C 2.925781 -3.070312 2.914062 -3.164062 2.90625 -3.28125 C 2.894531 -3.394531 2.890625 -3.484375 2.890625 -3.546875 L 2.890625 -4.953125 L 3.421875 -4.953125 L 3.421875 0 L 3 0 L 2.921875 -0.5 L 2.890625 -0.5 C 2.828125 -0.394531 2.742188 -0.296875 2.640625 -0.203125 C 2.546875 -0.117188 2.425781 -0.0507812 2.28125 0 C 2.144531 0.0390625 1.984375 0.0625 1.796875 0.0625 Z M 1.875 -0.375 C 2.25 -0.375 2.515625 -0.476562 2.671875 -0.6875 C 2.828125 -0.90625 2.90625 -1.222656 2.90625 -1.640625 L 2.90625 -1.734375 C 2.90625 -2.179688 2.832031 -2.519531 2.6875 -2.75 C 2.539062 -2.988281 2.269531 -3.109375 1.875 -3.109375 C 1.550781 -3.109375 1.304688 -2.984375 1.140625 -2.734375 C 0.984375 -2.484375 0.90625 -2.144531 0.90625 -1.71875 C 0.90625 -1.289062 0.984375 -0.957031 1.140625 -0.71875 C 1.304688 -0.488281 1.550781 -0.375 1.875 -0.375 Z M 1.875 -0.375 "/></g></g><g transform="translate(74.062831, 12.342587)"><g/></g><g transform="translate(75.756667, 12.342587)"><g><path d="M 1.171875 0 L 0.640625 0 L 0.640625 -4.65625 L 3.21875 -4.65625 L 3.21875 -4.171875 L 1.171875 -4.171875 L 1.171875 -2.46875 L 3.109375 -2.46875 L 3.109375 -2 L 1.171875 -2 Z M 1.171875 0 "/></g></g><g transform="translate(79.122052, 12.342587)"><g><path d="M 3.5625 -1.75 C 3.5625 -1.457031 3.523438 -1.195312 3.453125 -0.96875 C 3.378906 -0.75 3.269531 -0.5625 3.125 -0.40625 C 2.988281 -0.257812 2.820312 -0.144531 2.625 -0.0625 C 2.425781 0.0195312 2.203125 0.0625 1.953125 0.0625 C 1.710938 0.0625 1.492188 0.0195312 1.296875 -0.0625 C 1.109375 -0.144531 0.941406 -0.257812 0.796875 -0.40625 C 0.660156 -0.5625 0.550781 -0.75 0.46875 -0.96875 C 0.394531 -1.195312 0.359375 -1.457031 0.359375 -1.75 C 0.359375 -2.132812 0.421875 -2.457031 0.546875 -2.71875 C 0.679688 -2.988281 0.867188 -3.191406 1.109375 -3.328125 C 1.347656 -3.472656 1.632812 -3.546875 1.96875 -3.546875 C 2.289062 -3.546875 2.570312 -3.472656 2.8125 -3.328125 C 3.050781 -3.191406 3.234375 -2.988281 3.359375 -2.71875 C 3.492188 -2.445312 3.5625 -2.125 3.5625 -1.75 Z M 0.90625 -1.75 C 0.90625 -1.46875 0.941406 -1.222656 1.015625 -1.015625 C 1.085938 -0.816406 1.203125 -0.660156 1.359375 -0.546875 C 1.515625 -0.429688 1.71875 -0.375 1.96875 -0.375 C 2.207031 -0.375 2.40625 -0.429688 2.5625 -0.546875 C 2.71875 -0.660156 2.832031 -0.816406 2.90625 -1.015625 C 2.976562 -1.222656 3.015625 -1.46875 3.015625 -1.75 C 3.015625 -2.03125 2.976562 -2.269531 2.90625 -2.46875 C 2.832031 -2.675781 2.71875 -2.832031 2.5625 -2.9375 C 2.40625 -3.050781 2.203125 -3.109375 1.953125 -3.109375 C 1.597656 -3.109375 1.332031 -2.988281 1.15625 -2.75 C 0.988281 -2.507812 0.90625 -2.175781 0.90625 -1.75 Z M 0.90625 -1.75 "/></g></g><g transform="translate(83.04462, 12.342587)"><g><path d="M 2.140625 -3.546875 C 2.210938 -3.546875 2.285156 -3.539062 2.359375 -3.53125 C 2.429688 -3.53125 2.5 -3.523438 2.5625 -3.515625 L 2.5 -3.015625 C 2.4375 -3.035156 2.367188 -3.046875 2.296875 -3.046875 C 2.234375 -3.054688 2.171875 -3.0625 2.109375 -3.0625 C 1.972656 -3.0625 1.84375 -3.03125 1.71875 -2.96875 C 1.59375 -2.914062 1.484375 -2.835938 1.390625 -2.734375 C 1.296875 -2.628906 1.222656 -2.503906 1.171875 -2.359375 C 1.117188 -2.210938 1.09375 -2.050781 1.09375 -1.875 L 1.09375 0 L 0.5625 0 L 0.5625 -3.484375 L 1 -3.484375 L 1.046875 -2.84375 L 1.078125 -2.84375 C 1.148438 -2.96875 1.234375 -3.082031 1.328125 -3.1875 C 1.429688 -3.300781 1.550781 -3.390625 1.6875 -3.453125 C 1.820312 -3.515625 1.972656 -3.546875 2.140625 -3.546875 Z M 2.140625 -3.546875 "/></g></g><g transform="translate(85.709546, 12.342587)"><g/></g><g transform="translate(87.403382, 12.342587)"><g><path d="M 3.265625 -1.234375 C 3.265625 -0.960938 3.191406 -0.726562 3.046875 -0.53125 C 2.910156 -0.332031 2.71875 -0.179688 2.46875 -0.078125 C 2.226562 0.015625 1.941406 0.0625 1.609375 0.0625 C 1.429688 0.0625 1.265625 0.0507812 1.109375 0.03125 C 0.953125 0.0195312 0.804688 0 0.671875 -0.03125 C 0.546875 -0.0625 0.429688 -0.101562 0.328125 -0.15625 L 0.328125 -0.671875 C 0.492188 -0.609375 0.691406 -0.546875 0.921875 -0.484375 C 1.148438 -0.429688 1.390625 -0.40625 1.640625 -0.40625 C 1.867188 -0.40625 2.0625 -0.4375 2.21875 -0.5 C 2.382812 -0.5625 2.507812 -0.648438 2.59375 -0.765625 C 2.675781 -0.878906 2.71875 -1.019531 2.71875 -1.1875 C 2.71875 -1.351562 2.679688 -1.488281 2.609375 -1.59375 C 2.546875 -1.695312 2.429688 -1.789062 2.265625 -1.875 C 2.097656 -1.96875 1.878906 -2.066406 1.609375 -2.171875 C 1.410156 -2.234375 1.234375 -2.304688 1.078125 -2.390625 C 0.929688 -2.472656 0.804688 -2.566406 0.703125 -2.671875 C 0.597656 -2.785156 0.519531 -2.910156 0.46875 -3.046875 C 0.414062 -3.191406 0.390625 -3.351562 0.390625 -3.53125 C 0.390625 -3.78125 0.453125 -3.992188 0.578125 -4.171875 C 0.703125 -4.347656 0.875 -4.484375 1.09375 -4.578125 C 1.320312 -4.671875 1.582031 -4.71875 1.875 -4.71875 C 2.125 -4.71875 2.351562 -4.691406 2.5625 -4.640625 C 2.78125 -4.597656 2.976562 -4.535156 3.15625 -4.453125 L 2.984375 -4 C 2.816406 -4.0625 2.640625 -4.113281 2.453125 -4.15625 C 2.265625 -4.207031 2.070312 -4.234375 1.875 -4.234375 C 1.664062 -4.234375 1.492188 -4.203125 1.359375 -4.140625 C 1.222656 -4.085938 1.117188 -4.007812 1.046875 -3.90625 C 0.972656 -3.800781 0.9375 -3.675781 0.9375 -3.53125 C 0.9375 -3.363281 0.972656 -3.222656 1.046875 -3.109375 C 1.117188 -3.003906 1.226562 -2.910156 1.375 -2.828125 C 1.53125 -2.742188 1.734375 -2.660156 1.984375 -2.578125 C 2.253906 -2.472656 2.484375 -2.363281 2.671875 -2.25 C 2.867188 -2.144531 3.015625 -2.007812 3.109375 -1.84375 C 3.210938 -1.6875 3.265625 -1.484375 3.265625 -1.234375 Z M 3.265625 -1.234375 "/></g></g><g transform="translate(90.978904, 12.342587)"><g><path d="M 1.6875 -0.375 C 1.769531 -0.375 1.859375 -0.378906 1.953125 -0.390625 C 2.046875 -0.398438 2.117188 -0.421875 2.171875 -0.453125 L 2.171875 -0.03125 C 2.109375 -0.0078125 2.019531 0.0078125 1.90625 0.03125 C 1.800781 0.0507812 1.695312 0.0625 1.59375 0.0625 C 1.40625 0.0625 1.238281 0.03125 1.09375 -0.03125 C 0.945312 -0.09375 0.828125 -0.203125 0.734375 -0.359375 C 0.640625 -0.515625 0.59375 -0.726562 0.59375 -1 L 0.59375 -3.078125 L 0.109375 -3.078125 L 0.109375 -3.328125 L 0.59375 -3.53125 L 0.8125 -4.296875 L 1.125 -4.296875 L 1.125 -3.484375 L 2.15625 -3.484375 L 2.15625 -3.078125 L 1.125 -3.078125 L 1.125 -1.015625 C 1.125 -0.796875 1.175781 -0.632812 1.28125 -0.53125 C 1.382812 -0.425781 1.519531 -0.375 1.6875 -0.375 Z M 1.6875 -0.375 "/></g></g><g transform="translate(93.303153, 12.342587)"><g><path d="M 1.859375 -3.546875 C 2.273438 -3.546875 2.582031 -3.453125 2.78125 -3.265625 C 2.988281 -3.078125 3.09375 -2.78125 3.09375 -2.375 L 3.09375 0 L 2.703125 0 L 2.609375 -0.515625 L 2.578125 -0.515625 C 2.484375 -0.390625 2.378906 -0.28125 2.265625 -0.1875 C 2.160156 -0.101562 2.039062 -0.0390625 1.90625 0 C 1.769531 0.0390625 1.597656 0.0625 1.390625 0.0625 C 1.179688 0.0625 0.992188 0.0234375 0.828125 -0.046875 C 0.660156 -0.117188 0.53125 -0.226562 0.4375 -0.375 C 0.34375 -0.53125 0.296875 -0.722656 0.296875 -0.953125 C 0.296875 -1.304688 0.429688 -1.578125 0.703125 -1.765625 C 0.984375 -1.953125 1.40625 -2.050781 1.96875 -2.0625 L 2.578125 -2.09375 L 2.578125 -2.296875 C 2.578125 -2.597656 2.507812 -2.8125 2.375 -2.9375 C 2.25 -3.0625 2.066406 -3.125 1.828125 -3.125 C 1.648438 -3.125 1.476562 -3.09375 1.3125 -3.03125 C 1.144531 -2.976562 0.988281 -2.914062 0.84375 -2.84375 L 0.671875 -3.25 C 0.828125 -3.332031 1.007812 -3.398438 1.21875 -3.453125 C 1.425781 -3.515625 1.640625 -3.546875 1.859375 -3.546875 Z M 2.5625 -1.71875 L 2.03125 -1.703125 C 1.601562 -1.679688 1.296875 -1.609375 1.109375 -1.484375 C 0.929688 -1.359375 0.84375 -1.179688 0.84375 -0.953125 C 0.84375 -0.753906 0.90625 -0.601562 1.03125 -0.5 C 1.15625 -0.40625 1.316406 -0.359375 1.515625 -0.359375 C 1.816406 -0.359375 2.066406 -0.441406 2.265625 -0.609375 C 2.460938 -0.785156 2.5625 -1.046875 2.5625 -1.390625 Z M 2.5625 -1.71875 "/></g></g><g transform="translate(96.926434, 12.342587)"><g><path d="M 2.140625 -3.546875 C 2.210938 -3.546875 2.285156 -3.539062 2.359375 -3.53125 C 2.429688 -3.53125 2.5 -3.523438 2.5625 -3.515625 L 2.5 -3.015625 C 2.4375 -3.035156 2.367188 -3.046875 2.296875 -3.046875 C 2.234375 -3.054688 2.171875 -3.0625 2.109375 -3.0625 C 1.972656 -3.0625 1.84375 -3.03125 1.71875 -2.96875 C 1.59375 -2.914062 1.484375 -2.835938 1.390625 -2.734375 C 1.296875 -2.628906 1.222656 -2.503906 1.171875 -2.359375 C 1.117188 -2.210938 1.09375 -2.050781 1.09375 -1.875 L 1.09375 0 L 0.5625 0 L 0.5625 -3.484375 L 1 -3.484375 L 1.046875 -2.84375 L 1.078125 -2.84375 C 1.148438 -2.96875 1.234375 -3.082031 1.328125 -3.1875 C 1.429688 -3.300781 1.550781 -3.390625 1.6875 -3.453125 C 1.820312 -3.515625 1.972656 -3.546875 2.140625 -3.546875 Z M 2.140625 -3.546875 "/></g></g><g transform="translate(99.59136, 12.342587)"><g><path d="M 1.6875 -0.375 C 1.769531 -0.375 1.859375 -0.378906 1.953125 -0.390625 C 2.046875 -0.398438 2.117188 -0.421875 2.171875 -0.453125 L 2.171875 -0.03125 C 2.109375 -0.0078125 2.019531 0.0078125 1.90625 0.03125 C 1.800781 0.0507812 1.695312 0.0625 1.59375 0.0625 C 1.40625 0.0625 1.238281 0.03125 1.09375 -0.03125 C 0.945312 -0.09375 0.828125 -0.203125 0.734375 -0.359375 C 0.640625 -0.515625 0.59375 -0.726562 0.59375 -1 L 0.59375 -3.078125 L 0.109375 -3.078125 L 0.109375 -3.328125 L 0.59375 -3.53125 L 0.8125 -4.296875 L 1.125 -4.296875 L 1.125 -3.484375 L 2.15625 -3.484375 L 2.15625 -3.078125 L 1.125 -3.078125 L 1.125 -1.015625 C 1.125 -0.796875 1.175781 -0.632812 1.28125 -0.53125 C 1.382812 -0.425781 1.519531 -0.375 1.6875 -0.375 Z M 1.6875 -0.375 "/></g></g><g transform="translate(101.915609, 12.342587)"><g><path d="M 3.4375 -3.484375 L 3.4375 0 L 3 0 L 2.921875 -0.484375 L 2.890625 -0.484375 C 2.828125 -0.367188 2.738281 -0.269531 2.625 -0.1875 C 2.507812 -0.101562 2.378906 -0.0390625 2.234375 0 C 2.085938 0.0390625 1.9375 0.0625 1.78125 0.0625 C 1.5 0.0625 1.265625 0.0195312 1.078125 -0.0625 C 0.890625 -0.15625 0.75 -0.296875 0.65625 -0.484375 C 0.5625 -0.671875 0.515625 -0.910156 0.515625 -1.203125 L 0.515625 -3.484375 L 1.046875 -3.484375 L 1.046875 -1.234375 C 1.046875 -0.953125 1.113281 -0.738281 1.25 -0.59375 C 1.382812 -0.445312 1.585938 -0.375 1.859375 -0.375 C 2.109375 -0.375 2.3125 -0.421875 2.46875 -0.515625 C 2.625 -0.617188 2.734375 -0.765625 2.796875 -0.953125 C 2.867188 -1.140625 2.90625 -1.375 2.90625 -1.65625 L 2.90625 -3.484375 Z M 3.4375 -3.484375 "/></g></g><g transform="translate(105.91459, 12.342587)"><g><path d="M 2.1875 -3.546875 C 2.625 -3.546875 2.972656 -3.394531 3.234375 -3.09375 C 3.492188 -2.800781 3.625 -2.351562 3.625 -1.75 C 3.625 -1.351562 3.5625 -1.019531 3.4375 -0.75 C 3.320312 -0.476562 3.15625 -0.273438 2.9375 -0.140625 C 2.726562 -0.00390625 2.476562 0.0625 2.1875 0.0625 C 2 0.0625 1.832031 0.0390625 1.6875 0 C 1.550781 -0.0507812 1.429688 -0.117188 1.328125 -0.203125 C 1.234375 -0.285156 1.15625 -0.378906 1.09375 -0.484375 L 1.046875 -0.484375 C 1.054688 -0.398438 1.066406 -0.296875 1.078125 -0.171875 C 1.085938 -0.0546875 1.09375 0.0390625 1.09375 0.125 L 1.09375 1.5625 L 0.5625 1.5625 L 0.5625 -3.484375 L 1 -3.484375 L 1.0625 -2.96875 L 1.09375 -2.96875 C 1.15625 -3.070312 1.234375 -3.164062 1.328125 -3.25 C 1.429688 -3.34375 1.550781 -3.414062 1.6875 -3.46875 C 1.832031 -3.519531 2 -3.546875 2.1875 -3.546875 Z M 2.109375 -3.109375 C 1.859375 -3.109375 1.660156 -3.0625 1.515625 -2.96875 C 1.367188 -2.875 1.257812 -2.734375 1.1875 -2.546875 C 1.125 -2.359375 1.09375 -2.125 1.09375 -1.84375 L 1.09375 -1.75 C 1.09375 -1.445312 1.125 -1.191406 1.1875 -0.984375 C 1.25 -0.785156 1.351562 -0.632812 1.5 -0.53125 C 1.65625 -0.425781 1.859375 -0.375 2.109375 -0.375 C 2.328125 -0.375 2.503906 -0.429688 2.640625 -0.546875 C 2.785156 -0.660156 2.894531 -0.820312 2.96875 -1.03125 C 3.039062 -1.25 3.078125 -1.492188 3.078125 -1.765625 C 3.078125 -2.171875 2.992188 -2.492188 2.828125 -2.734375 C 2.671875 -2.984375 2.429688 -3.109375 2.109375 -3.109375 Z M 2.109375 -3.109375 "/></g></g><g transform="translate(109.90402, 12.342587)"><g><path d="M 2.8125 -0.953125 C 2.8125 -0.734375 2.753906 -0.546875 2.640625 -0.390625 C 2.535156 -0.242188 2.378906 -0.128906 2.171875 -0.046875 C 1.960938 0.0234375 1.710938 0.0625 1.421875 0.0625 C 1.179688 0.0625 0.972656 0.0390625 0.796875 0 C 0.617188 -0.03125 0.460938 -0.0820312 0.328125 -0.15625 L 0.328125 -0.640625 C 0.472656 -0.566406 0.640625 -0.5 0.828125 -0.4375 C 1.023438 -0.382812 1.226562 -0.359375 1.4375 -0.359375 C 1.738281 -0.359375 1.957031 -0.40625 2.09375 -0.5 C 2.226562 -0.601562 2.296875 -0.738281 2.296875 -0.90625 C 2.296875 -1 2.269531 -1.082031 2.21875 -1.15625 C 2.164062 -1.226562 2.070312 -1.300781 1.9375 -1.375 C 1.8125 -1.445312 1.640625 -1.523438 1.421875 -1.609375 C 1.191406 -1.691406 0.992188 -1.773438 0.828125 -1.859375 C 0.671875 -1.941406 0.546875 -2.039062 0.453125 -2.15625 C 0.367188 -2.28125 0.328125 -2.441406 0.328125 -2.640625 C 0.328125 -2.929688 0.445312 -3.15625 0.6875 -3.3125 C 0.925781 -3.46875 1.238281 -3.546875 1.625 -3.546875 C 1.84375 -3.546875 2.039062 -3.523438 2.21875 -3.484375 C 2.40625 -3.441406 2.578125 -3.390625 2.734375 -3.328125 L 2.5625 -2.890625 C 2.414062 -2.953125 2.257812 -3.003906 2.09375 -3.046875 C 1.9375 -3.097656 1.769531 -3.125 1.59375 -3.125 C 1.351562 -3.125 1.164062 -3.082031 1.03125 -3 C 0.90625 -2.914062 0.84375 -2.804688 0.84375 -2.671875 C 0.84375 -2.554688 0.867188 -2.460938 0.921875 -2.390625 C 0.984375 -2.328125 1.082031 -2.265625 1.21875 -2.203125 C 1.351562 -2.140625 1.53125 -2.066406 1.75 -1.984375 C 1.96875 -1.898438 2.15625 -1.816406 2.3125 -1.734375 C 2.476562 -1.648438 2.601562 -1.546875 2.6875 -1.421875 C 2.769531 -1.296875 2.8125 -1.140625 2.8125 -0.953125 Z M 2.8125 -0.953125 "/></g></g></g><g fill="#FFF" fill-opacity="1"><g transform="translate(51.121754, 21.036763)"><g><path d="M 2.625 -4.234375 C 2.363281 -4.234375 2.128906 -4.191406 1.921875 -4.109375 C 1.722656 -4.023438 1.550781 -3.898438 1.40625 -3.734375 C 1.269531 -3.566406 1.160156 -3.363281 1.078125 -3.125 C 1.003906 -2.882812 0.96875 -2.617188 0.96875 -2.328125 C 0.96875 -1.941406 1.023438 -1.601562 1.140625 -1.3125 C 1.265625 -1.019531 1.445312 -0.796875 1.6875 -0.640625 C 1.9375 -0.484375 2.242188 -0.40625 2.609375 -0.40625 C 2.816406 -0.40625 3.007812 -0.421875 3.1875 -0.453125 C 3.375 -0.492188 3.554688 -0.539062 3.734375 -0.59375 L 3.734375 -0.125 C 3.566406 -0.0625 3.390625 -0.015625 3.203125 0.015625 C 3.015625 0.046875 2.789062 0.0625 2.53125 0.0625 C 2.0625 0.0625 1.664062 -0.0351562 1.34375 -0.234375 C 1.03125 -0.429688 0.789062 -0.707031 0.625 -1.0625 C 0.46875 -1.414062 0.390625 -1.835938 0.390625 -2.328125 C 0.390625 -2.679688 0.4375 -3.003906 0.53125 -3.296875 C 0.632812 -3.585938 0.78125 -3.835938 0.96875 -4.046875 C 1.164062 -4.265625 1.398438 -4.429688 1.671875 -4.546875 C 1.953125 -4.660156 2.269531 -4.71875 2.625 -4.71875 C 2.863281 -4.71875 3.09375 -4.691406 3.3125 -4.640625 C 3.53125 -4.597656 3.726562 -4.535156 3.90625 -4.453125 L 3.6875 -3.984375 C 3.539062 -4.054688 3.378906 -4.113281 3.203125 -4.15625 C 3.023438 -4.207031 2.832031 -4.234375 2.625 -4.234375 Z M 2.625 -4.234375 "/></g></g><g transform="translate(55.228988, 21.036763)"><g><path d="M 1.09375 0 L 0.5625 0 L 0.5625 -4.953125 L 1.09375 -4.953125 Z M 1.09375 0 "/></g></g><g transform="translate(56.875065, 21.036763)"><g><path d="M 3.5625 -1.75 C 3.5625 -1.457031 3.523438 -1.195312 3.453125 -0.96875 C 3.378906 -0.75 3.269531 -0.5625 3.125 -0.40625 C 2.988281 -0.257812 2.820312 -0.144531 2.625 -0.0625 C 2.425781 0.0195312 2.203125 0.0625 1.953125 0.0625 C 1.710938 0.0625 1.492188 0.0195312 1.296875 -0.0625 C 1.109375 -0.144531 0.941406 -0.257812 0.796875 -0.40625 C 0.660156 -0.5625 0.550781 -0.75 0.46875 -0.96875 C 0.394531 -1.195312 0.359375 -1.457031 0.359375 -1.75 C 0.359375 -2.132812 0.421875 -2.457031 0.546875 -2.71875 C 0.679688 -2.988281 0.867188 -3.191406 1.109375 -3.328125 C 1.347656 -3.472656 1.632812 -3.546875 1.96875 -3.546875 C 2.289062 -3.546875 2.570312 -3.472656 2.8125 -3.328125 C 3.050781 -3.191406 3.234375 -2.988281 3.359375 -2.71875 C 3.492188 -2.445312 3.5625 -2.125 3.5625 -1.75 Z M 0.90625 -1.75 C 0.90625 -1.46875 0.941406 -1.222656 1.015625 -1.015625 C 1.085938 -0.816406 1.203125 -0.660156 1.359375 -0.546875 C 1.515625 -0.429688 1.71875 -0.375 1.96875 -0.375 C 2.207031 -0.375 2.40625 -0.429688 2.5625 -0.546875 C 2.71875 -0.660156 2.832031 -0.816406 2.90625 -1.015625 C 2.976562 -1.222656 3.015625 -1.46875 3.015625 -1.75 C 3.015625 -2.03125 2.976562 -2.269531 2.90625 -2.46875 C 2.832031 -2.675781 2.71875 -2.832031 2.5625 -2.9375 C 2.40625 -3.050781 2.203125 -3.109375 1.953125 -3.109375 C 1.597656 -3.109375 1.332031 -2.988281 1.15625 -2.75 C 0.988281 -2.507812 0.90625 -2.175781 0.90625 -1.75 Z M 0.90625 -1.75 "/></g></g><g transform="translate(60.797633, 21.036763)"><g><path d="M 3.4375 -3.484375 L 3.4375 0 L 3 0 L 2.921875 -0.484375 L 2.890625 -0.484375 C 2.828125 -0.367188 2.738281 -0.269531 2.625 -0.1875 C 2.507812 -0.101562 2.378906 -0.0390625 2.234375 0 C 2.085938 0.0390625 1.9375 0.0625 1.78125 0.0625 C 1.5 0.0625 1.265625 0.0195312 1.078125 -0.0625 C 0.890625 -0.15625 0.75 -0.296875 0.65625 -0.484375 C 0.5625 -0.671875 0.515625 -0.910156 0.515625 -1.203125 L 0.515625 -3.484375 L 1.046875 -3.484375 L 1.046875 -1.234375 C 1.046875 -0.953125 1.113281 -0.738281 1.25 -0.59375 C 1.382812 -0.445312 1.585938 -0.375 1.859375 -0.375 C 2.109375 -0.375 2.3125 -0.421875 2.46875 -0.515625 C 2.625 -0.617188 2.734375 -0.765625 2.796875 -0.953125 C 2.867188 -1.140625 2.90625 -1.375 2.90625 -1.65625 L 2.90625 -3.484375 Z M 3.4375 -3.484375 "/></g></g><g transform="translate(64.796614, 21.036763)"><g><path d="M 1.796875 0.0625 C 1.359375 0.0625 1.007812 -0.0859375 0.75 -0.390625 C 0.488281 -0.691406 0.359375 -1.140625 0.359375 -1.734375 C 0.359375 -2.328125 0.488281 -2.773438 0.75 -3.078125 C 1.019531 -3.390625 1.375 -3.546875 1.8125 -3.546875 C 1.988281 -3.546875 2.144531 -3.519531 2.28125 -3.46875 C 2.425781 -3.425781 2.546875 -3.363281 2.640625 -3.28125 C 2.742188 -3.195312 2.828125 -3.101562 2.890625 -3 L 2.9375 -3 C 2.925781 -3.070312 2.914062 -3.164062 2.90625 -3.28125 C 2.894531 -3.394531 2.890625 -3.484375 2.890625 -3.546875 L 2.890625 -4.953125 L 3.421875 -4.953125 L 3.421875 0 L 3 0 L 2.921875 -0.5 L 2.890625 -0.5 C 2.828125 -0.394531 2.742188 -0.296875 2.640625 -0.203125 C 2.546875 -0.117188 2.425781 -0.0507812 2.28125 0 C 2.144531 0.0390625 1.984375 0.0625 1.796875 0.0625 Z M 1.875 -0.375 C 2.25 -0.375 2.515625 -0.476562 2.671875 -0.6875 C 2.828125 -0.90625 2.90625 -1.222656 2.90625 -1.640625 L 2.90625 -1.734375 C 2.90625 -2.179688 2.832031 -2.519531 2.6875 -2.75 C 2.539062 -2.988281 2.269531 -3.109375 1.875 -3.109375 C 1.550781 -3.109375 1.304688 -2.984375 1.140625 -2.734375 C 0.984375 -2.484375 0.90625 -2.144531 0.90625 -1.71875 C 0.90625 -1.289062 0.984375 -0.957031 1.140625 -0.71875 C 1.304688 -0.488281 1.550781 -0.375 1.875 -0.375 Z M 1.875 -0.375 "/></g></g><g transform="translate(68.786044, 21.036763)"><g/></g><g transform="translate(70.47988, 21.036763)"><g><path d="M 1.859375 -4.65625 C 2.453125 -4.65625 2.882812 -4.535156 3.15625 -4.296875 C 3.4375 -4.066406 3.578125 -3.734375 3.578125 -3.296875 C 3.578125 -3.097656 3.546875 -2.910156 3.484375 -2.734375 C 3.421875 -2.554688 3.316406 -2.398438 3.171875 -2.265625 C 3.023438 -2.128906 2.832031 -2.019531 2.59375 -1.9375 C 2.363281 -1.863281 2.082031 -1.828125 1.75 -1.828125 L 1.171875 -1.828125 L 1.171875 0 L 0.640625 0 L 0.640625 -4.65625 Z M 1.796875 -4.1875 L 1.171875 -4.1875 L 1.171875 -2.296875 L 1.6875 -2.296875 C 1.976562 -2.296875 2.222656 -2.328125 2.421875 -2.390625 C 2.617188 -2.453125 2.765625 -2.554688 2.859375 -2.703125 C 2.960938 -2.847656 3.015625 -3.035156 3.015625 -3.265625 C 3.015625 -3.578125 2.914062 -3.804688 2.71875 -3.953125 C 2.53125 -4.109375 2.222656 -4.1875 1.796875 -4.1875 Z M 1.796875 -4.1875 "/></g></g><g transform="translate(74.402448, 21.036763)"><g><path d="M 2.140625 -3.546875 C 2.210938 -3.546875 2.285156 -3.539062 2.359375 -3.53125 C 2.429688 -3.53125 2.5 -3.523438 2.5625 -3.515625 L 2.5 -3.015625 C 2.4375 -3.035156 2.367188 -3.046875 2.296875 -3.046875 C 2.234375 -3.054688 2.171875 -3.0625 2.109375 -3.0625 C 1.972656 -3.0625 1.84375 -3.03125 1.71875 -2.96875 C 1.59375 -2.914062 1.484375 -2.835938 1.390625 -2.734375 C 1.296875 -2.628906 1.222656 -2.503906 1.171875 -2.359375 C 1.117188 -2.210938 1.09375 -2.050781 1.09375 -1.875 L 1.09375 0 L 0.5625 0 L 0.5625 -3.484375 L 1 -3.484375 L 1.046875 -2.84375 L 1.078125 -2.84375 C 1.148438 -2.96875 1.234375 -3.082031 1.328125 -3.1875 C 1.429688 -3.300781 1.550781 -3.390625 1.6875 -3.453125 C 1.820312 -3.515625 1.972656 -3.546875 2.140625 -3.546875 Z M 2.140625 -3.546875 "/></g></g><g transform="translate(77.067374, 21.036763)"><g><path d="M 3.5625 -1.75 C 3.5625 -1.457031 3.523438 -1.195312 3.453125 -0.96875 C 3.378906 -0.75 3.269531 -0.5625 3.125 -0.40625 C 2.988281 -0.257812 2.820312 -0.144531 2.625 -0.0625 C 2.425781 0.0195312 2.203125 0.0625 1.953125 0.0625 C 1.710938 0.0625 1.492188 0.0195312 1.296875 -0.0625 C 1.109375 -0.144531 0.941406 -0.257812 0.796875 -0.40625 C 0.660156 -0.5625 0.550781 -0.75 0.46875 -0.96875 C 0.394531 -1.195312 0.359375 -1.457031 0.359375 -1.75 C 0.359375 -2.132812 0.421875 -2.457031 0.546875 -2.71875 C 0.679688 -2.988281 0.867188 -3.191406 1.109375 -3.328125 C 1.347656 -3.472656 1.632812 -3.546875 1.96875 -3.546875 C 2.289062 -3.546875 2.570312 -3.472656 2.8125 -3.328125 C 3.050781 -3.191406 3.234375 -2.988281 3.359375 -2.71875 C 3.492188 -2.445312 3.5625 -2.125 3.5625 -1.75 Z M 0.90625 -1.75 C 0.90625 -1.46875 0.941406 -1.222656 1.015625 -1.015625 C 1.085938 -0.816406 1.203125 -0.660156 1.359375 -0.546875 C 1.515625 -0.429688 1.71875 -0.375 1.96875 -0.375 C 2.207031 -0.375 2.40625 -0.429688 2.5625 -0.546875 C 2.71875 -0.660156 2.832031 -0.816406 2.90625 -1.015625 C 2.976562 -1.222656 3.015625 -1.46875 3.015625 -1.75 C 3.015625 -2.03125 2.976562 -2.269531 2.90625 -2.46875 C 2.832031 -2.675781 2.71875 -2.832031 2.5625 -2.9375 C 2.40625 -3.050781 2.203125 -3.109375 1.953125 -3.109375 C 1.597656 -3.109375 1.332031 -2.988281 1.15625 -2.75 C 0.988281 -2.507812 0.90625 -2.175781 0.90625 -1.75 Z M 0.90625 -1.75 "/></g></g><g transform="translate(80.989941, 21.036763)"><g><path d="M 1.53125 1.5625 C 1.070312 1.5625 0.71875 1.472656 0.46875 1.296875 C 0.21875 1.128906 0.09375 0.894531 0.09375 0.59375 C 0.09375 0.375 0.160156 0.1875 0.296875 0.03125 C 0.441406 -0.125 0.640625 -0.226562 0.890625 -0.28125 C 0.796875 -0.320312 0.710938 -0.382812 0.640625 -0.46875 C 0.578125 -0.550781 0.546875 -0.648438 0.546875 -0.765625 C 0.546875 -0.890625 0.582031 -1 0.65625 -1.09375 C 0.726562 -1.1875 0.835938 -1.28125 0.984375 -1.375 C 0.804688 -1.445312 0.660156 -1.570312 0.546875 -1.75 C 0.429688 -1.925781 0.375 -2.132812 0.375 -2.375 C 0.375 -2.625 0.425781 -2.835938 0.53125 -3.015625 C 0.632812 -3.191406 0.785156 -3.328125 0.984375 -3.421875 C 1.179688 -3.515625 1.421875 -3.5625 1.703125 -3.5625 C 1.753906 -3.5625 1.8125 -3.554688 1.875 -3.546875 C 1.9375 -3.546875 1.992188 -3.539062 2.046875 -3.53125 C 2.109375 -3.519531 2.164062 -3.507812 2.21875 -3.5 L 3.40625 -3.5 L 3.40625 -3.15625 L 2.765625 -3.078125 C 2.828125 -2.992188 2.878906 -2.890625 2.921875 -2.765625 C 2.960938 -2.648438 2.984375 -2.523438 2.984375 -2.390625 C 2.984375 -2.035156 2.863281 -1.753906 2.625 -1.546875 C 2.394531 -1.347656 2.070312 -1.25 1.65625 -1.25 C 1.5625 -1.25 1.460938 -1.257812 1.359375 -1.28125 C 1.253906 -1.21875 1.175781 -1.148438 1.125 -1.078125 C 1.070312 -1.015625 1.046875 -0.9375 1.046875 -0.84375 C 1.046875 -0.769531 1.066406 -0.710938 1.109375 -0.671875 C 1.148438 -0.640625 1.207031 -0.613281 1.28125 -0.59375 C 1.363281 -0.570312 1.460938 -0.5625 1.578125 -0.5625 L 2.1875 -0.5625 C 2.5625 -0.5625 2.847656 -0.484375 3.046875 -0.328125 C 3.253906 -0.171875 3.359375 0.0625 3.359375 0.375 C 3.359375 0.757812 3.203125 1.050781 2.890625 1.25 C 2.578125 1.457031 2.125 1.5625 1.53125 1.5625 Z M 1.546875 1.15625 C 1.835938 1.15625 2.078125 1.125 2.265625 1.0625 C 2.453125 1.007812 2.59375 0.925781 2.6875 0.8125 C 2.78125 0.707031 2.828125 0.578125 2.828125 0.421875 C 2.828125 0.285156 2.796875 0.179688 2.734375 0.109375 C 2.671875 0.0351562 2.578125 -0.0078125 2.453125 -0.03125 C 2.328125 -0.0625 2.175781 -0.078125 2 -0.078125 L 1.40625 -0.078125 C 1.25 -0.078125 1.109375 -0.0507812 0.984375 0 C 0.867188 0.0507812 0.78125 0.125 0.71875 0.21875 C 0.65625 0.3125 0.625 0.429688 0.625 0.578125 C 0.625 0.765625 0.703125 0.90625 0.859375 1 C 1.023438 1.101562 1.253906 1.15625 1.546875 1.15625 Z M 1.6875 -1.640625 C 1.9375 -1.640625 2.125 -1.703125 2.25 -1.828125 C 2.375 -1.953125 2.4375 -2.140625 2.4375 -2.390625 C 2.4375 -2.648438 2.375 -2.84375 2.25 -2.96875 C 2.125 -3.101562 1.929688 -3.171875 1.671875 -3.171875 C 1.429688 -3.171875 1.242188 -3.101562 1.109375 -2.96875 C 0.984375 -2.832031 0.921875 -2.632812 0.921875 -2.375 C 0.921875 -2.132812 0.984375 -1.953125 1.109375 -1.828125 C 1.242188 -1.703125 1.4375 -1.640625 1.6875 -1.640625 Z M 1.6875 -1.640625 "/></g></g><g transform="translate(84.530441, 21.036763)"><g><path d="M 2.140625 -3.546875 C 2.210938 -3.546875 2.285156 -3.539062 2.359375 -3.53125 C 2.429688 -3.53125 2.5 -3.523438 2.5625 -3.515625 L 2.5 -3.015625 C 2.4375 -3.035156 2.367188 -3.046875 2.296875 -3.046875 C 2.234375 -3.054688 2.171875 -3.0625 2.109375 -3.0625 C 1.972656 -3.0625 1.84375 -3.03125 1.71875 -2.96875 C 1.59375 -2.914062 1.484375 -2.835938 1.390625 -2.734375 C 1.296875 -2.628906 1.222656 -2.503906 1.171875 -2.359375 C 1.117188 -2.210938 1.09375 -2.050781 1.09375 -1.875 L 1.09375 0 L 0.5625 0 L 0.5625 -3.484375 L 1 -3.484375 L 1.046875 -2.84375 L 1.078125 -2.84375 C 1.148438 -2.96875 1.234375 -3.082031 1.328125 -3.1875 C 1.429688 -3.300781 1.550781 -3.390625 1.6875 -3.453125 C 1.820312 -3.515625 1.972656 -3.546875 2.140625 -3.546875 Z M 2.140625 -3.546875 "/></g></g><g transform="translate(87.195367, 21.036763)"><g><path d="M 1.859375 -3.546875 C 2.273438 -3.546875 2.582031 -3.453125 2.78125 -3.265625 C 2.988281 -3.078125 3.09375 -2.78125 3.09375 -2.375 L 3.09375 0 L 2.703125 0 L 2.609375 -0.515625 L 2.578125 -0.515625 C 2.484375 -0.390625 2.378906 -0.28125 2.265625 -0.1875 C 2.160156 -0.101562 2.039062 -0.0390625 1.90625 0 C 1.769531 0.0390625 1.597656 0.0625 1.390625 0.0625 C 1.179688 0.0625 0.992188 0.0234375 0.828125 -0.046875 C 0.660156 -0.117188 0.53125 -0.226562 0.4375 -0.375 C 0.34375 -0.53125 0.296875 -0.722656 0.296875 -0.953125 C 0.296875 -1.304688 0.429688 -1.578125 0.703125 -1.765625 C 0.984375 -1.953125 1.40625 -2.050781 1.96875 -2.0625 L 2.578125 -2.09375 L 2.578125 -2.296875 C 2.578125 -2.597656 2.507812 -2.8125 2.375 -2.9375 C 2.25 -3.0625 2.066406 -3.125 1.828125 -3.125 C 1.648438 -3.125 1.476562 -3.09375 1.3125 -3.03125 C 1.144531 -2.976562 0.988281 -2.914062 0.84375 -2.84375 L 0.671875 -3.25 C 0.828125 -3.332031 1.007812 -3.398438 1.21875 -3.453125 C 1.425781 -3.515625 1.640625 -3.546875 1.859375 -3.546875 Z M 2.5625 -1.71875 L 2.03125 -1.703125 C 1.601562 -1.679688 1.296875 -1.609375 1.109375 -1.484375 C 0.929688 -1.359375 0.84375 -1.179688 0.84375 -0.953125 C 0.84375 -0.753906 0.90625 -0.601562 1.03125 -0.5 C 1.15625 -0.40625 1.316406 -0.359375 1.515625 -0.359375 C 1.816406 -0.359375 2.066406 -0.441406 2.265625 -0.609375 C 2.460938 -0.785156 2.5625 -1.046875 2.5625 -1.390625 Z M 2.5625 -1.71875 "/></g></g><g transform="translate(90.818648, 21.036763)"><g><path d="M 4.34375 -3.546875 C 4.726562 -3.546875 5.015625 -3.445312 5.203125 -3.25 C 5.398438 -3.050781 5.5 -2.726562 5.5 -2.28125 L 5.5 0 L 4.984375 0 L 4.984375 -2.265625 C 4.984375 -2.546875 4.921875 -2.753906 4.796875 -2.890625 C 4.671875 -3.035156 4.488281 -3.109375 4.25 -3.109375 C 3.914062 -3.109375 3.671875 -3.007812 3.515625 -2.8125 C 3.367188 -2.613281 3.296875 -2.328125 3.296875 -1.953125 L 3.296875 0 L 2.765625 0 L 2.765625 -2.265625 C 2.765625 -2.453125 2.738281 -2.609375 2.6875 -2.734375 C 2.632812 -2.859375 2.550781 -2.953125 2.4375 -3.015625 C 2.332031 -3.078125 2.203125 -3.109375 2.046875 -3.109375 C 1.804688 -3.109375 1.613281 -3.054688 1.46875 -2.953125 C 1.332031 -2.859375 1.234375 -2.71875 1.171875 -2.53125 C 1.109375 -2.34375 1.078125 -2.113281 1.078125 -1.84375 L 1.078125 0 L 0.5625 0 L 0.5625 -3.484375 L 0.984375 -3.484375 L 1.0625 -3 L 1.09375 -3 C 1.164062 -3.113281 1.253906 -3.210938 1.359375 -3.296875 C 1.460938 -3.378906 1.578125 -3.441406 1.703125 -3.484375 C 1.835938 -3.523438 1.976562 -3.546875 2.125 -3.546875 C 2.394531 -3.546875 2.617188 -3.492188 2.796875 -3.390625 C 2.972656 -3.296875 3.101562 -3.148438 3.1875 -2.953125 L 3.21875 -2.953125 C 3.332031 -3.148438 3.488281 -3.296875 3.6875 -3.390625 C 3.882812 -3.492188 4.101562 -3.546875 4.34375 -3.546875 Z M 4.34375 -3.546875 "/></g></g></g><g clip-path="url(#6e3f0acd08)"><path fill="#ea4335" d="M 22.566406 10.019531 L 24.773438 7.824219 L 24.921875 6.902344 C 20.898438 3.265625 14.5 3.675781 10.871094 7.761719 C 9.863281 8.894531 9.117188 10.3125 8.71875 11.773438 L 9.511719 11.660156 L 13.925781 10.9375 L 14.265625 10.589844 C 16.230469 8.445312 19.554688 8.15625 21.820312 9.980469 Z M 22.566406 10.019531 " fill-opacity="1" fill-rule="nonzero"/></g><g clip-path="url(#8964cfb576)"><path fill="#4285f4" d="M 27.917969 11.707031 C 27.410156 9.847656 26.371094 8.179688 24.921875 6.902344 L 21.820312 9.980469 C 23.128906 11.042969 23.875 12.644531 23.84375 14.324219 L 23.84375 14.871094 C 25.367188 14.871094 26.601562 16.101562 26.601562 17.613281 C 26.601562 19.128906 25.367188 20.324219 23.84375 20.324219 L 18.320312 20.324219 L 17.777344 20.910156 L 17.777344 24.199219 L 18.320312 24.714844 L 23.84375 24.714844 C 27.804688 24.746094 31.042969 21.609375 31.074219 17.671875 C 31.09375 15.28125 29.910156 13.042969 27.917969 11.707031 " fill-opacity="1" fill-rule="nonzero"/></g><g clip-path="url(#636edf68a7)"><path fill="#34a853" d="M 12.804688 24.714844 L 18.320312 24.714844 L 18.320312 20.324219 L 12.804688 20.324219 C 12.410156 20.324219 12.027344 20.242188 11.671875 20.078125 L 10.890625 20.316406 L 8.664062 22.511719 L 8.472656 23.261719 C 9.71875 24.195312 11.238281 24.722656 12.804688 24.714844 " fill-opacity="1" fill-rule="nonzero"/></g><g clip-path="url(#5b63665b2b)"><path fill="#fbbc05" d="M 12.804688 10.476562 C 8.839844 10.5 5.648438 13.710938 5.671875 17.648438 C 5.683594 19.847656 6.71875 21.917969 8.472656 23.261719 L 11.671875 20.078125 C 10.285156 19.457031 9.667969 17.832031 10.292969 16.453125 C 10.921875 15.070312 12.554688 14.457031 13.941406 15.082031 C 14.554688 15.355469 15.042969 15.84375 15.320312 16.453125 L 18.519531 13.269531 C 17.160156 11.5 15.042969 10.464844 12.804688 10.476562 " fill-opacity="1" fill-rule="nonzero"/></g></svg>