<svg width="87" height="20" viewBox="0 0 87 20" fill="none" xmlns="http://www.w3.org/2000/svg">
<g id="logo-new" opacity="0.75" clip-path="url(#clip0_2005_209)">
<path id="Vector" d="M27.459 5.66034H29.619V14.9303H34.929V17.0003H27.459V5.66034Z" fill="white"/>
<path id="Vector_2" d="M44.3711 5.66034H46.5311V17.0003H44.3711V5.66034Z" fill="white"/>
<path id="Vector_3" d="M56.8711 5.66034H60.4711C61.2151 5.66034 61.9231 5.81634 62.5951 6.12834C63.2671 6.42834 63.8611 6.83634 64.3771 7.35234C64.8931 7.86834 65.3011 8.46834 65.6011 9.15234C65.9011 9.83634 66.0511 10.5623 66.0511 11.3303C66.0511 12.0983 65.9011 12.8243 65.6011 13.5083C65.3011 14.1923 64.8931 14.7923 64.3771 15.3083C63.8611 15.8243 63.2671 16.2383 62.5951 16.5503C61.9231 16.8503 61.2151 17.0003 60.4711 17.0003H56.8711V5.66034ZM60.4711 14.9303C60.9151 14.9303 61.3411 14.8343 61.7491 14.6423C62.1691 14.4503 62.5351 14.1923 62.8471 13.8683C63.1711 13.5443 63.4231 13.1663 63.6031 12.7343C63.7951 12.2903 63.8911 11.8223 63.8911 11.3303C63.8911 10.8383 63.7951 10.3763 63.6031 9.94434C63.4231 9.50034 63.1711 9.11634 62.8471 8.79234C62.5351 8.46834 62.1691 8.21034 61.7491 8.01834C61.3411 7.82634 60.9151 7.73034 60.4711 7.73034H59.0311V14.9303H60.4711Z" fill="white"/>
<path id="Vector_4" d="M80.6296 17.0903C79.8856 17.0903 79.1776 16.9463 78.5056 16.6583C77.8456 16.3583 77.2636 15.9503 76.7596 15.4343C76.2676 14.9063 75.8716 14.2943 75.5716 13.5983C75.2836 12.9023 75.1396 12.1463 75.1396 11.3303C75.1396 10.5263 75.2836 9.77631 75.5716 9.08031C75.8716 8.37231 76.2676 7.76031 76.7596 7.24431C77.2636 6.71631 77.8456 6.30831 78.5056 6.02031C79.1776 5.72031 79.8856 5.57031 80.6296 5.57031C81.3736 5.57031 82.0756 5.72031 82.7356 6.02031C83.4076 6.30831 83.9896 6.71631 84.4816 7.24431C84.9856 7.76031 85.3816 8.37231 85.6696 9.08031C85.9696 9.77631 86.1196 10.5263 86.1196 11.3303C86.1196 12.1463 85.9696 12.9023 85.6696 13.5983C85.3816 14.2943 84.9856 14.9063 84.4816 15.4343C83.9896 15.9503 83.4076 16.3583 82.7356 16.6583C82.0756 16.9463 81.3736 17.0903 80.6296 17.0903ZM80.6296 15.0203C81.0736 15.0203 81.4996 14.9303 81.9076 14.7503C82.3156 14.5703 82.6696 14.3183 82.9696 13.9943C83.2696 13.6583 83.5096 13.2683 83.6896 12.8243C83.8696 12.3683 83.9596 11.8703 83.9596 11.3303C83.9596 10.7903 83.8696 10.2983 83.6896 9.85431C83.5096 9.39831 83.2696 9.00831 82.9696 8.68431C82.6696 8.34831 82.3156 8.09031 81.9076 7.91031C81.4996 7.73031 81.0736 7.64031 80.6296 7.64031C80.1736 7.64031 79.7416 7.73031 79.3336 7.91031C78.9376 8.09031 78.5896 8.34831 78.2896 8.68431C77.9896 9.00831 77.7496 9.39831 77.5696 9.85431C77.3896 10.2983 77.2996 10.7903 77.2996 11.3303C77.2996 11.8703 77.3896 12.3683 77.5696 12.8243C77.7496 13.2683 77.9896 13.6583 78.2896 13.9943C78.5896 14.3183 78.9376 14.5703 79.3336 14.7503C79.7416 14.9303 80.1736 15.0203 80.6296 15.0203Z" fill="white"/>
<path id="Vector_5" fill-rule="evenodd" clip-rule="evenodd" d="M7.29431 0L12.243 7.74771L7.29404 10.6324L2.3457 7.74763L7.29431 0ZM3.86058 7.38126L7.29431 2.00535L10.728 7.38128L7.29408 9.3829L3.86058 7.38126Z" fill="white"/>
<path id="Vector_6" d="M7.28702 12.3353L1.54643 8.98872L1.38966 9.23415C-0.378426 12.0023 0.0164492 15.6276 2.33903 17.9502C5.07214 20.6833 9.50339 20.6833 12.2365 17.9502C14.5591 15.6276 14.954 12.0023 13.1859 9.23415L13.0291 8.98865L7.28702 12.3353Z" fill="white"/>
</g>
<defs>
<clipPath id="clip0_2005_209">
<rect width="86" height="20" fill="white" transform="translate(0.289062)"/>
</clipPath>
</defs>
</svg>
