<svg xmlns="http://www.w3.org/2000/svg" xmlns:xlink="http://www.w3.org/1999/xlink" width="155" zoomAndPan="magnify" viewBox="0 0 116.25 30.000001" height="40" preserveAspectRatio="xMidYMid meet" version="1.0"><defs><g/><clipPath id="b6591a7f10"><path d="M 5.429688 18 L 41.722656 18 L 41.722656 25.097656 L 5.429688 25.097656 Z M 5.429688 18 " clip-rule="nonzero"/></clipPath><clipPath id="d0566e726a"><path d="M 13 4.046875 L 34 4.046875 L 34 17 L 13 17 Z M 13 4.046875 " clip-rule="nonzero"/></clipPath><clipPath id="a21ab79788"><path d="M 47.769531 3.34375 L 48.492188 3.34375 L 48.492188 25.84375 L 47.769531 25.84375 Z M 47.769531 3.34375 " clip-rule="nonzero"/></clipPath></defs><g clip-path="url(#b6591a7f10)"><path fill="#FFF" d="M 20.53125 18.285156 L 20.53125 25.097656 L 22.441406 25.097656 L 22.441406 18.285156 Z M 5.5 18.273438 L 5.5 25.09375 L 7.429688 25.09375 L 7.429688 19.796875 L 8.929688 19.804688 C 9.425781 19.804688 9.769531 19.925781 10.003906 20.179688 C 10.308594 20.503906 10.429688 21.027344 10.429688 21.980469 L 10.429688 25.09375 L 12.296875 25.09375 L 12.296875 21.328125 C 12.296875 18.640625 10.59375 18.273438 8.929688 18.273438 Z M 23.613281 18.285156 L 23.613281 25.097656 L 26.710938 25.097656 C 28.363281 25.097656 28.902344 24.820312 29.480469 24.203125 C 29.894531 23.769531 30.15625 22.8125 30.15625 21.765625 C 30.15625 20.808594 29.933594 19.953125 29.539062 19.421875 C 28.839844 18.472656 27.816406 18.285156 26.289062 18.285156 Z M 25.503906 19.765625 L 26.324219 19.765625 C 27.519531 19.765625 28.289062 20.300781 28.289062 21.699219 C 28.289062 23.09375 27.519531 23.636719 26.324219 23.636719 L 25.503906 23.636719 Z M 17.777344 18.285156 L 16.183594 23.683594 L 14.65625 18.285156 L 12.589844 18.285156 L 14.769531 25.097656 L 17.523438 25.097656 L 19.726562 18.285156 Z M 31.050781 25.097656 L 32.960938 25.097656 L 32.960938 18.285156 L 31.050781 18.285156 Z M 36.410156 18.285156 L 33.742188 25.09375 L 35.621094 25.09375 L 36.042969 23.886719 L 39.199219 23.886719 L 39.601562 25.085938 L 41.648438 25.085938 L 38.957031 18.285156 Z M 37.648438 19.527344 L 38.808594 22.714844 L 36.457031 22.714844 Z M 37.648438 19.527344 " fill-opacity="1" fill-rule="nonzero"/></g><g clip-path="url(#d0566e726a)"><path fill="#76b900" d="M 21.136719 7.847656 L 21.136719 6.695312 L 21.476562 6.683594 C 24.609375 6.582031 26.667969 9.398438 26.667969 9.398438 C 26.667969 9.398438 24.449219 12.496094 22.070312 12.496094 C 21.75 12.496094 21.441406 12.445312 21.144531 12.347656 L 21.144531 8.847656 C 22.363281 9 22.613281 9.539062 23.339844 10.769531 L 24.96875 9.390625 C 24.96875 9.390625 23.777344 7.816406 21.769531 7.816406 C 21.558594 7.8125 21.347656 7.824219 21.136719 7.847656 M 21.136719 4.035156 L 21.136719 5.757812 L 21.472656 5.734375 C 25.832031 5.582031 28.679688 9.332031 28.679688 9.332031 C 28.679688 9.332031 25.417969 13.328125 22.015625 13.328125 C 21.71875 13.328125 21.429688 13.300781 21.140625 13.25 L 21.140625 14.316406 C 21.378906 14.34375 21.625 14.363281 21.867188 14.363281 C 25.03125 14.363281 27.320312 12.738281 29.535156 10.816406 C 29.902344 11.117188 31.40625 11.835938 31.71875 12.152344 C 29.613281 13.929688 24.707031 15.355469 21.921875 15.355469 C 21.664062 15.355469 21.402344 15.34375 21.144531 15.3125 L 21.144531 16.8125 L 33.171875 16.8125 L 33.171875 4.039062 Z M 21.136719 12.34375 L 21.136719 13.253906 C 18.210938 12.730469 17.398438 9.667969 17.398438 9.667969 C 17.398438 9.667969 18.804688 8.101562 21.136719 7.847656 L 21.136719 8.839844 L 21.128906 8.839844 C 19.90625 8.691406 18.945312 9.84375 18.945312 9.84375 C 18.945312 9.84375 19.488281 11.785156 21.136719 12.34375 M 15.945312 9.539062 C 15.945312 9.539062 17.671875 6.964844 21.144531 6.695312 L 21.144531 5.757812 C 17.300781 6.070312 13.980469 9.339844 13.980469 9.339844 C 13.980469 9.339844 15.859375 14.8125 21.136719 15.308594 L 21.136719 14.316406 C 17.265625 13.832031 15.945312 9.539062 15.945312 9.539062 Z M 15.945312 9.539062 " fill-opacity="1" fill-rule="nonzero"/></g><g fill="#FFF" fill-opacity="1"><g transform="translate(56.011118, 10.953999)"><g><path d="M 1.046875 0 L 1.046875 -7.625 L 1.9375 -7.625 L 1.9375 0 Z M 1.046875 0 "/></g></g><g transform="translate(58.995794, 10.953999)"><g><path d="M 7.015625 0 L 5.984375 0 L 1.828125 -6.40625 L 1.78125 -6.40625 C 1.789062 -6.238281 1.800781 -6.046875 1.8125 -5.828125 C 1.832031 -5.609375 1.847656 -5.375 1.859375 -5.125 C 1.867188 -4.882812 1.875 -4.640625 1.875 -4.390625 L 1.875 0 L 1.046875 0 L 1.046875 -7.625 L 2.0625 -7.625 L 6.203125 -1.234375 L 6.234375 -1.234375 C 6.234375 -1.359375 6.226562 -1.53125 6.21875 -1.75 C 6.207031 -1.976562 6.195312 -2.222656 6.1875 -2.484375 C 6.175781 -2.742188 6.171875 -2.984375 6.171875 -3.203125 L 6.171875 -7.625 L 7.015625 -7.625 Z M 7.015625 0 "/></g></g><g transform="translate(67.041895, 10.953999)"><g><path d="M 4.3125 -6.953125 C 3.882812 -6.953125 3.503906 -6.878906 3.171875 -6.734375 C 2.835938 -6.585938 2.550781 -6.378906 2.3125 -6.109375 C 2.082031 -5.835938 1.90625 -5.507812 1.78125 -5.125 C 1.65625 -4.738281 1.59375 -4.300781 1.59375 -3.8125 C 1.59375 -3.175781 1.691406 -2.625 1.890625 -2.15625 C 2.085938 -1.6875 2.382812 -1.320312 2.78125 -1.0625 C 3.175781 -0.800781 3.675781 -0.671875 4.28125 -0.671875 C 4.625 -0.671875 4.941406 -0.695312 5.234375 -0.75 C 5.535156 -0.8125 5.832031 -0.882812 6.125 -0.96875 L 6.125 -0.203125 C 5.84375 -0.0976562 5.546875 -0.0195312 5.234375 0.03125 C 4.929688 0.0820312 4.570312 0.109375 4.15625 0.109375 C 3.375 0.109375 2.722656 -0.0507812 2.203125 -0.375 C 1.691406 -0.695312 1.304688 -1.148438 1.046875 -1.734375 C 0.785156 -2.328125 0.65625 -3.023438 0.65625 -3.828125 C 0.65625 -4.398438 0.734375 -4.925781 0.890625 -5.40625 C 1.054688 -5.882812 1.296875 -6.296875 1.609375 -6.640625 C 1.921875 -6.992188 2.300781 -7.265625 2.75 -7.453125 C 3.207031 -7.640625 3.726562 -7.734375 4.3125 -7.734375 C 4.695312 -7.734375 5.066406 -7.695312 5.421875 -7.625 C 5.785156 -7.550781 6.113281 -7.441406 6.40625 -7.296875 L 6.046875 -6.546875 C 5.804688 -6.660156 5.539062 -6.753906 5.25 -6.828125 C 4.957031 -6.910156 4.644531 -6.953125 4.3125 -6.953125 Z M 4.3125 -6.953125 "/></g></g><g transform="translate(73.77307, 10.953999)"><g><path d="M 5.296875 0 L 1.046875 0 L 1.046875 -7.625 L 5.296875 -7.625 L 5.296875 -6.84375 L 1.9375 -6.84375 L 1.9375 -4.375 L 5.09375 -4.375 L 5.09375 -3.609375 L 1.9375 -3.609375 L 1.9375 -0.78125 L 5.296875 -0.78125 Z M 5.296875 0 "/></g></g><g transform="translate(79.711114, 10.953999)"><g><path d="M 3.03125 -7.625 C 4.019531 -7.625 4.738281 -7.429688 5.1875 -7.046875 C 5.644531 -6.660156 5.875 -6.113281 5.875 -5.40625 C 5.875 -5.082031 5.820312 -4.773438 5.71875 -4.484375 C 5.613281 -4.191406 5.441406 -3.929688 5.203125 -3.703125 C 4.960938 -3.484375 4.648438 -3.3125 4.265625 -3.1875 C 3.878906 -3.0625 3.410156 -3 2.859375 -3 L 1.9375 -3 L 1.9375 0 L 1.046875 0 L 1.046875 -7.625 Z M 2.953125 -6.875 L 1.9375 -6.875 L 1.9375 -3.765625 L 2.765625 -3.765625 C 3.242188 -3.765625 3.644531 -3.816406 3.96875 -3.921875 C 4.300781 -4.023438 4.546875 -4.191406 4.703125 -4.421875 C 4.867188 -4.660156 4.953125 -4.972656 4.953125 -5.359375 C 4.953125 -5.867188 4.789062 -6.25 4.46875 -6.5 C 4.144531 -6.75 3.640625 -6.875 2.953125 -6.875 Z M 2.953125 -6.875 "/></g></g><g transform="translate(86.139646, 10.953999)"><g><path d="M 3.390625 0 L 2.5 0 L 2.5 -6.84375 L 0.09375 -6.84375 L 0.09375 -7.625 L 5.78125 -7.625 L 5.78125 -6.84375 L 3.390625 -6.84375 Z M 3.390625 0 "/></g></g><g transform="translate(92.02551, 10.953999)"><g><path d="M 1.046875 0 L 1.046875 -7.625 L 1.9375 -7.625 L 1.9375 0 Z M 1.046875 0 "/></g></g><g transform="translate(95.010186, 10.953999)"><g><path d="M 7.65625 -3.828125 C 7.65625 -3.234375 7.582031 -2.695312 7.4375 -2.21875 C 7.289062 -1.738281 7.066406 -1.320312 6.765625 -0.96875 C 6.472656 -0.625 6.109375 -0.359375 5.671875 -0.171875 C 5.242188 0.015625 4.742188 0.109375 4.171875 0.109375 C 3.578125 0.109375 3.054688 0.015625 2.609375 -0.171875 C 2.171875 -0.359375 1.804688 -0.625 1.515625 -0.96875 C 1.222656 -1.320312 1.003906 -1.738281 0.859375 -2.21875 C 0.722656 -2.707031 0.65625 -3.242188 0.65625 -3.828125 C 0.65625 -4.609375 0.78125 -5.289062 1.03125 -5.875 C 1.289062 -6.46875 1.679688 -6.925781 2.203125 -7.25 C 2.734375 -7.582031 3.394531 -7.75 4.1875 -7.75 C 4.9375 -7.75 5.566406 -7.585938 6.078125 -7.265625 C 6.597656 -6.941406 6.988281 -6.484375 7.25 -5.890625 C 7.519531 -5.304688 7.65625 -4.617188 7.65625 -3.828125 Z M 1.59375 -3.828125 C 1.59375 -3.179688 1.679688 -2.617188 1.859375 -2.140625 C 2.046875 -1.671875 2.328125 -1.304688 2.703125 -1.046875 C 3.085938 -0.785156 3.578125 -0.65625 4.171875 -0.65625 C 4.753906 -0.65625 5.234375 -0.785156 5.609375 -1.046875 C 5.992188 -1.304688 6.273438 -1.671875 6.453125 -2.140625 C 6.640625 -2.617188 6.734375 -3.179688 6.734375 -3.828125 C 6.734375 -4.804688 6.523438 -5.570312 6.109375 -6.125 C 5.691406 -6.6875 5.050781 -6.96875 4.1875 -6.96875 C 3.59375 -6.96875 3.101562 -6.835938 2.71875 -6.578125 C 2.332031 -6.328125 2.046875 -5.96875 1.859375 -5.5 C 1.679688 -5.03125 1.59375 -4.472656 1.59375 -3.828125 Z M 1.59375 -3.828125 "/></g></g><g transform="translate(103.322404, 10.953999)"><g><path d="M 7.015625 0 L 5.984375 0 L 1.828125 -6.40625 L 1.78125 -6.40625 C 1.789062 -6.238281 1.800781 -6.046875 1.8125 -5.828125 C 1.832031 -5.609375 1.847656 -5.375 1.859375 -5.125 C 1.867188 -4.882812 1.875 -4.640625 1.875 -4.390625 L 1.875 0 L 1.046875 0 L 1.046875 -7.625 L 2.0625 -7.625 L 6.203125 -1.234375 L 6.234375 -1.234375 C 6.234375 -1.359375 6.226562 -1.53125 6.21875 -1.75 C 6.207031 -1.976562 6.195312 -2.222656 6.1875 -2.484375 C 6.175781 -2.742188 6.171875 -2.984375 6.171875 -3.203125 L 6.171875 -7.625 L 7.015625 -7.625 Z M 7.015625 0 "/></g></g></g><g fill="#FFF" fill-opacity="1"><g transform="translate(57.653038, 25.202522)"><g><path d="M 3.03125 -7.625 C 4.019531 -7.625 4.738281 -7.429688 5.1875 -7.046875 C 5.644531 -6.660156 5.875 -6.113281 5.875 -5.40625 C 5.875 -5.082031 5.820312 -4.773438 5.71875 -4.484375 C 5.613281 -4.191406 5.441406 -3.929688 5.203125 -3.703125 C 4.960938 -3.484375 4.648438 -3.3125 4.265625 -3.1875 C 3.878906 -3.0625 3.410156 -3 2.859375 -3 L 1.9375 -3 L 1.9375 0 L 1.046875 0 L 1.046875 -7.625 Z M 2.953125 -6.875 L 1.9375 -6.875 L 1.9375 -3.765625 L 2.765625 -3.765625 C 3.242188 -3.765625 3.644531 -3.816406 3.96875 -3.921875 C 4.300781 -4.023438 4.546875 -4.191406 4.703125 -4.421875 C 4.867188 -4.660156 4.953125 -4.972656 4.953125 -5.359375 C 4.953125 -5.867188 4.789062 -6.25 4.46875 -6.5 C 4.144531 -6.75 3.640625 -6.875 2.953125 -6.875 Z M 2.953125 -6.875 "/></g></g><g transform="translate(64.08157, 25.202522)"><g><path d="M 3.109375 -7.625 C 3.734375 -7.625 4.25 -7.546875 4.65625 -7.390625 C 5.0625 -7.242188 5.363281 -7.007812 5.5625 -6.6875 C 5.769531 -6.375 5.875 -5.972656 5.875 -5.484375 C 5.875 -5.078125 5.800781 -4.738281 5.65625 -4.46875 C 5.507812 -4.195312 5.316406 -3.976562 5.078125 -3.8125 C 4.847656 -3.644531 4.597656 -3.515625 4.328125 -3.421875 L 6.421875 0 L 5.390625 0 L 3.515625 -3.1875 L 1.9375 -3.1875 L 1.9375 0 L 1.046875 0 L 1.046875 -7.625 Z M 3.046875 -6.859375 L 1.9375 -6.859375 L 1.9375 -3.9375 L 3.140625 -3.9375 C 3.765625 -3.9375 4.222656 -4.0625 4.515625 -4.3125 C 4.804688 -4.570312 4.953125 -4.945312 4.953125 -5.4375 C 4.953125 -5.957031 4.796875 -6.320312 4.484375 -6.53125 C 4.179688 -6.75 3.703125 -6.859375 3.046875 -6.859375 Z M 3.046875 -6.859375 "/></g></g><g transform="translate(70.677077, 25.202522)"><g><path d="M 7.65625 -3.828125 C 7.65625 -3.234375 7.582031 -2.695312 7.4375 -2.21875 C 7.289062 -1.738281 7.066406 -1.320312 6.765625 -0.96875 C 6.472656 -0.625 6.109375 -0.359375 5.671875 -0.171875 C 5.242188 0.015625 4.742188 0.109375 4.171875 0.109375 C 3.578125 0.109375 3.054688 0.015625 2.609375 -0.171875 C 2.171875 -0.359375 1.804688 -0.625 1.515625 -0.96875 C 1.222656 -1.320312 1.003906 -1.738281 0.859375 -2.21875 C 0.722656 -2.707031 0.65625 -3.242188 0.65625 -3.828125 C 0.65625 -4.609375 0.78125 -5.289062 1.03125 -5.875 C 1.289062 -6.46875 1.679688 -6.925781 2.203125 -7.25 C 2.734375 -7.582031 3.394531 -7.75 4.1875 -7.75 C 4.9375 -7.75 5.566406 -7.585938 6.078125 -7.265625 C 6.597656 -6.941406 6.988281 -6.484375 7.25 -5.890625 C 7.519531 -5.304688 7.65625 -4.617188 7.65625 -3.828125 Z M 1.59375 -3.828125 C 1.59375 -3.179688 1.679688 -2.617188 1.859375 -2.140625 C 2.046875 -1.671875 2.328125 -1.304688 2.703125 -1.046875 C 3.085938 -0.785156 3.578125 -0.65625 4.171875 -0.65625 C 4.753906 -0.65625 5.234375 -0.785156 5.609375 -1.046875 C 5.992188 -1.304688 6.273438 -1.671875 6.453125 -2.140625 C 6.640625 -2.617188 6.734375 -3.179688 6.734375 -3.828125 C 6.734375 -4.804688 6.523438 -5.570312 6.109375 -6.125 C 5.691406 -6.6875 5.050781 -6.96875 4.1875 -6.96875 C 3.59375 -6.96875 3.101562 -6.835938 2.71875 -6.578125 C 2.332031 -6.328125 2.046875 -5.96875 1.859375 -5.5 C 1.679688 -5.03125 1.59375 -4.472656 1.59375 -3.828125 Z M 1.59375 -3.828125 "/></g></g><g transform="translate(78.989295, 25.202522)"><g><path d="M 4.3125 -4 L 6.96875 -4 L 6.96875 -0.296875 C 6.570312 -0.160156 6.160156 -0.0625 5.734375 0 C 5.316406 0.0703125 4.847656 0.109375 4.328125 0.109375 C 3.523438 0.109375 2.851562 -0.046875 2.3125 -0.359375 C 1.769531 -0.679688 1.359375 -1.132812 1.078125 -1.71875 C 0.796875 -2.3125 0.65625 -3.007812 0.65625 -3.8125 C 0.65625 -4.601562 0.8125 -5.289062 1.125 -5.875 C 1.4375 -6.46875 1.882812 -6.925781 2.46875 -7.25 C 3.0625 -7.570312 3.769531 -7.734375 4.59375 -7.734375 C 5.019531 -7.734375 5.421875 -7.691406 5.796875 -7.609375 C 6.179688 -7.535156 6.539062 -7.429688 6.875 -7.296875 L 6.53125 -6.515625 C 6.25 -6.640625 5.9375 -6.742188 5.59375 -6.828125 C 5.257812 -6.921875 4.910156 -6.96875 4.546875 -6.96875 C 3.921875 -6.96875 3.382812 -6.835938 2.9375 -6.578125 C 2.5 -6.316406 2.160156 -5.953125 1.921875 -5.484375 C 1.691406 -5.015625 1.578125 -4.457031 1.578125 -3.8125 C 1.578125 -3.175781 1.675781 -2.625 1.875 -2.15625 C 2.082031 -1.6875 2.40625 -1.316406 2.84375 -1.046875 C 3.28125 -0.785156 3.84375 -0.65625 4.53125 -0.65625 C 4.875 -0.65625 5.164062 -0.675781 5.40625 -0.71875 C 5.65625 -0.757812 5.878906 -0.804688 6.078125 -0.859375 L 6.078125 -3.203125 L 4.3125 -3.203125 Z M 4.3125 -4 "/></g></g><g transform="translate(86.758845, 25.202522)"><g><path d="M 3.109375 -7.625 C 3.734375 -7.625 4.25 -7.546875 4.65625 -7.390625 C 5.0625 -7.242188 5.363281 -7.007812 5.5625 -6.6875 C 5.769531 -6.375 5.875 -5.972656 5.875 -5.484375 C 5.875 -5.078125 5.800781 -4.738281 5.65625 -4.46875 C 5.507812 -4.195312 5.316406 -3.976562 5.078125 -3.8125 C 4.847656 -3.644531 4.597656 -3.515625 4.328125 -3.421875 L 6.421875 0 L 5.390625 0 L 3.515625 -3.1875 L 1.9375 -3.1875 L 1.9375 0 L 1.046875 0 L 1.046875 -7.625 Z M 3.046875 -6.859375 L 1.9375 -6.859375 L 1.9375 -3.9375 L 3.140625 -3.9375 C 3.765625 -3.9375 4.222656 -4.0625 4.515625 -4.3125 C 4.804688 -4.570312 4.953125 -4.945312 4.953125 -5.4375 C 4.953125 -5.957031 4.796875 -6.320312 4.484375 -6.53125 C 4.179688 -6.75 3.703125 -6.859375 3.046875 -6.859375 Z M 3.046875 -6.859375 "/></g></g><g transform="translate(93.354352, 25.202522)"><g><path d="M 5.828125 0 L 4.890625 -2.421875 L 1.828125 -2.421875 L 0.890625 0 L 0 0 L 2.984375 -7.65625 L 3.78125 -7.65625 L 6.75 0 Z M 4.625 -3.203125 L 3.734375 -5.609375 C 3.710938 -5.671875 3.675781 -5.773438 3.625 -5.921875 C 3.582031 -6.066406 3.535156 -6.210938 3.484375 -6.359375 C 3.429688 -6.515625 3.390625 -6.640625 3.359375 -6.734375 C 3.328125 -6.585938 3.289062 -6.441406 3.25 -6.296875 C 3.207031 -6.160156 3.164062 -6.03125 3.125 -5.90625 C 3.09375 -5.789062 3.0625 -5.691406 3.03125 -5.609375 L 2.125 -3.203125 Z M 4.625 -3.203125 "/></g></g><g transform="translate(100.111616, 25.202522)"><g><path d="M 4.40625 0 L 1.84375 -6.75 L 1.796875 -6.75 C 1.804688 -6.601562 1.816406 -6.425781 1.828125 -6.21875 C 1.835938 -6.019531 1.847656 -5.800781 1.859375 -5.5625 C 1.867188 -5.320312 1.875 -5.078125 1.875 -4.828125 L 1.875 0 L 1.046875 0 L 1.046875 -7.625 L 2.359375 -7.625 L 4.78125 -1.28125 L 4.8125 -1.28125 L 7.265625 -7.625 L 8.5625 -7.625 L 8.5625 0 L 7.6875 0 L 7.6875 -4.890625 C 7.6875 -5.109375 7.691406 -5.332031 7.703125 -5.5625 C 7.710938 -5.789062 7.722656 -6.003906 7.734375 -6.203125 C 7.742188 -6.410156 7.753906 -6.59375 7.765625 -6.75 L 7.71875 -6.75 L 5.125 0 Z M 4.40625 0 "/></g></g></g><g clip-path="url(#a21ab79788)"><path fill="#FFF" d="M 47.769531 3.738281 L 48.492188 3.738281 L 48.492188 25.449219 L 47.769531 25.449219 Z M 47.769531 3.738281 " fill-opacity="1" fill-rule="nonzero"/></g></svg>